<?xml version="1.0" standalone="no"?>
<!DOCTYPE svg PUBLIC "-//W3C//DTD SVG 1.1//EN" "http://www.w3.org/Graphics/SVG/1.1/DTD/svg11.dtd" >
<svg xmlns="http://www.w3.org/2000/svg">
<metadata></metadata>
<defs>
<font id="publiquemedium" horiz-adv-x="1275" >
<font-face units-per-em="2048" ascent="1536" descent="-512" />
<missing-glyph horiz-adv-x="614" />
<glyph horiz-adv-x="2048" />
<glyph horiz-adv-x="2048" />
<glyph unicode="&#xd;" horiz-adv-x="1024" />
<glyph unicode=" "  horiz-adv-x="614" />
<glyph unicode="&#x09;" horiz-adv-x="614" />
<glyph unicode="&#xa0;" horiz-adv-x="614" />
<glyph unicode="!" horiz-adv-x="663" d="M186 35v178q0 35 31 35h176q31 0 31 -35v-178q0 -35 -31 -35h-176q-31 0 -31 35zM201 1497q0 41 41 41h127q41 0 41 -41l-9 -1030q0 -41 -41 -41h-110q-41 0 -41 41z" />
<glyph unicode="&#x22;" horiz-adv-x="1064" d="M123 1262l190 475q4 10 13.5 14t25.5 -2l154 -53q18 -6 8 -27l-201 -412q-8 -16 -14 -17t-29 -1h-137q-18 0 -10 23zM535 1262l190 475q4 10 13.5 14t25.5 -2l154 -53q18 -6 8 -27l-201 -412q-8 -16 -14 -17t-29 -1h-137q-18 0 -10 23z" />
<glyph unicode="#" horiz-adv-x="1689" d="M80 367l18 110q4 25 15.5 33t33.5 6h252l164 977q4 23 13.5 33t33.5 10h111q39 0 33 -43l-164 -977h866q43 0 37 -39l-16 -112q-4 -25 -16.5 -31t-35.5 -8h-866l-47 -283q-4 -23 -13.5 -33t-33.5 -10h-111q-39 0 -32 43l47 283h-252q-41 2 -37 41zM186 1059l17 112 q4 25 16 31t35 8h866l47 283q4 23 13.5 33t33.5 10h111q39 0 33 -43l-47 -283h252q41 -2 36 -41l-18 -110q-4 -25 -15.5 -33t-33.5 -6h-252l-152 -977q-4 -23 -13 -33t-34 -10h-110q-39 0 -33 43l152 977h-867q-43 0 -37 39z" />
<glyph unicode="$" horiz-adv-x="1310" d="M97 113.5q-1 17.5 9 36.5l46 81q20 37 37.5 35t52.5 -18q41 -20 106.5 -37.5t134.5 -26.5v539q-72 27 -137 58.5t-117.5 75.5t-84 105.5t-35.5 145.5q0 76 23.5 145.5t70.5 126t116.5 98.5t163.5 60v178q0 35 31 35h141q31 0 31 -35v-166q160 -12 293 -84q47 -25 52 -39 t-11 -49l-43 -88q-14 -27 -36.5 -17.5t-49.5 21.5q-96 49 -205 62v-506q78 -29 151.5 -60.5t132 -77.5t93.5 -110.5t35 -157.5q0 -51 -17.5 -120.5t-62.5 -137t-126 -121t-206 -73.5v-172q0 -35 -31 -35h-141q-31 0 -31 35v166q-82 6 -172 27.5t-180 68.5q-33 14 -34 31.5z M303 1112q0 -66 47 -106.5t133 -79.5v413q-78 -25 -129 -80t-51 -147zM686 195q94 27 151.5 85t63.5 146q-6 78 -67.5 130t-147.5 91v-452z" />
<glyph unicode="%" horiz-adv-x="1724" d="M-10 1165q0 80 29.5 148.5t81 121t121 82t147.5 29.5q80 0 148.5 -29.5t120.5 -82t82 -121t30 -148.5t-30 -148.5t-82 -119.5t-120.5 -81t-148.5 -30q-78 0 -147.5 30t-121 81t-81 119.5t-29.5 148.5zM168 1165q0 -43 15.5 -80.5t42 -66.5t63.5 -45.5t80 -16.5t80.5 16.5 t65.5 45.5t43 66.5t15 80.5t-15 81t-43 67.5t-65.5 46t-80.5 16.5t-80 -16.5t-63.5 -46t-42 -67.5t-15.5 -81zM305.5 5q-8.5 5 1.5 22l850 1486q6 10 11.5 17.5t19.5 7.5h115h24q10 0 17.5 -4t-1.5 -21l-849 -1486q-6 -12 -12.5 -19.5t-18.5 -7.5h-141q-8 0 -16.5 5z M918 369q0 80 29.5 148.5t81.5 119.5t120.5 81t148.5 30q78 0 148 -30t121 -81t80.5 -119.5t29.5 -148.5t-29.5 -149.5t-80.5 -120t-121 -80t-148 -29.5q-80 0 -148.5 29.5t-120.5 80t-81.5 120t-29.5 149.5zM1096 369q0 -43 15 -81t42 -68t64.5 -46t80.5 -16t80 16t64.5 46 t44 68t16.5 81t-16.5 80.5t-44 66.5t-64.5 46.5t-80 17.5t-80.5 -17.5t-64.5 -46.5t-42 -66.5t-15 -80.5z" />
<glyph unicode="&#x26;" horiz-adv-x="1556" d="M53 457q0 98 42 194.5t134 151.5q-53 53 -75.5 133t-22.5 186q0 104 42 185.5t112.5 134.5t163 80.5t190.5 27.5q121 0 219 -27.5t167 -82t105.5 -131t36.5 -174.5v-236h222q25 0 46 -22.5t21 -47.5v-61q0 -27 -18.5 -48.5t-48.5 -21.5h-222v-278q0 -133 58.5 -191.5 t167.5 -60.5q84 0 84 -84v-16q0 -84 -84 -84q-201 0 -312 110q-43 -25 -90 -44t-102 -33.5t-119.5 -22.5t-144.5 -8q-119 0 -223.5 23.5t-181.5 77.5t-122 144.5t-45 225.5zM250 453q0 -61 20.5 -112.5t66.5 -88.5t119.5 -57.5t182.5 -20.5q63 0 149 16.5t195 81.5 q-8 33 -12 67t-4 79v289h-402q-96 0 -157.5 -22.5t-96.5 -58.5t-48 -82t-13 -91zM326 1124q0 -47 7 -89t28.5 -73.5t61.5 -51t105 -19.5h439v231q0 39 -14.5 83t-51.5 80t-101.5 59.5t-164.5 23.5q-66 0 -122 -18.5t-98 -51t-65.5 -77.5t-23.5 -97zM983 272q6 -25 14 -36 l17 55z" />
<glyph unicode="'" horiz-adv-x="704" d="M125 1262l190 475q4 10 13.5 14t25.5 -2l154 -53q18 -6 8 -27l-201 -412q-8 -16 -14 -17t-29 -1h-137q-18 0 -10 23z" />
<glyph unicode="(" horiz-adv-x="911" d="M129 643q0 127 28.5 253t90 242.5t158 219t229.5 182.5q14 8 23.5 8t15.5 -4t10 -10t8 -10l35 -60q16 -25 5 -37t-21 -20q-190 -143 -291 -345t-101 -419t100.5 -418.5t291.5 -345.5q10 -8 21 -20.5t-5 -36.5l-35 -60q-6 -10 -18 -21t-39 5q-133 80 -229.5 182.5 t-158 219t-90 242.5t-28.5 253z" />
<glyph unicode=")" horiz-adv-x="909" d="M185.5 -141q11.5 12 21.5 20q190 143 290.5 345t100.5 419t-100.5 419t-290.5 345q-10 8 -21.5 20.5t4.5 36.5l35 60q6 8 17.5 19t40.5 -3q133 -80 229 -182.5t157.5 -219t90 -242.5t28.5 -253t-28.5 -253t-90 -242.5t-157.5 -219t-229 -182.5q-14 -8 -23.5 -8t-15.5 4 t-11.5 10t-7.5 10l-35 60q-16 25 -4.5 37z" />
<glyph unicode="*" horiz-adv-x="854" d="M106 1184v67q-2 10 5.5 16.5t17.5 6.5h162l-115 115q-6 6 -5 16t5 14l49 49q4 6 14.5 6.5t16.5 -6.5l115 -114v159q0 10 6 17.5t16 7.5h68q10 0 16 -7t6 -18v-159l113 112q18 14 35 2l47 -49q6 -6 6 -16t-8 -17l-113 -112h162q10 0 17.5 -6t7.5 -17v-67q0 -8 -7.5 -15.5 t-17.5 -5.5l-164 -2l117 -114q6 -6 7 -16.5t-5 -18.5l-49 -47q-4 -4 -15.5 -4t-15.5 8l-117 114v-163q0 -10 -6 -17.5t-16 -7.5h-68q-10 0 -16 7t-6 18v161l-115 -114q-6 -6 -16.5 -7.5t-16.5 5.5l-47 47q-8 8 -7 18t7 17l115 114h-162q-10 0 -16.5 7.5t-6.5 15.5z" />
<glyph unicode="+" horiz-adv-x="1257" d="M84 557v137q0 31 35 31h416v418q0 35 30 35h137q31 0 31 -35v-418h418q35 0 35 -31v-137q0 -31 -35 -31h-418v-420q0 -35 -31 -34h-137q-31 0 -30 34v420h-416q-35 0 -35 31z" />
<glyph unicode="," horiz-adv-x="585" d="M96 -113q0 12 10 17q4 2 11 2q39 4 61.5 13t31.5 25.5t11 41t2 57.5h-65q-31 0 -31 35v170q0 35 31 35h184q31 0 31 -35v-166q0 -154 -56.5 -219.5t-195.5 -69.5q-12 0 -17 10q-2 4 -2 11z" />
<glyph unicode="-" horiz-adv-x="909" d="M78 561v119q0 41 41 41h667q41 0 41 -41v-119q0 -41 -41 -41h-667q-41 0 -41 41z" />
<glyph unicode="." horiz-adv-x="585" d="M129 35v170q0 35 31 35h184q31 0 31 -35v-170q0 -35 -31 -35h-184q-31 0 -31 35z" />
<glyph unicode="/" horiz-adv-x="868" d="M143 -201l338 1979q6 35 35 34h135q35 0 29 -34l-340 -1979q-6 -35 -35 -35h-133q-35 0 -29 35z" />
<glyph unicode="0" horiz-adv-x="1409" d="M115 768q0 133 30.5 272.5t98 253t174 186t260.5 72.5t260 -72.5t174 -186t98.5 -253t30.5 -272.5q0 -135 -30.5 -274.5t-98.5 -253t-174.5 -186t-259.5 -72.5q-154 0 -260.5 72.5t-174 186t-98 253t-30.5 274.5zM313 768q0 -90 15.5 -194.5t55.5 -193.5t110.5 -148.5 t183.5 -59.5q111 0 181.5 59.5t112.5 148.5t57 193.5t15 194.5q0 88 -15 191.5t-57 191.5t-113 146.5t-181 58.5q-113 0 -183.5 -58.5t-110.5 -146.5t-55.5 -191.5t-15.5 -191.5z" />
<glyph unicode="1" horiz-adv-x="894" d="M23 1124v117q0 23 9 29t23 6q57 0 109.5 17.5t93.5 47t71 68.5t42 80q4 16 12 31.5t43 15.5h106q31 0 31 -35v-1466q0 -35 -31 -35h-139q-31 0 -31 35v1143q-63 -39 -134.5 -62.5t-161.5 -23.5q-16 0 -29.5 4t-13.5 28z" />
<glyph unicode="2" horiz-adv-x="1230" d="M98 31v102q0 31 11.5 46.5t40.5 45.5l567 613q29 33 55.5 62.5t47 62t32.5 71.5t12 88q0 45 -19.5 86t-53 74t-77.5 52.5t-96 19.5q-80 0 -144 -41t-124 -129q-25 -39 -45 -46.5t-49 11.5l-66 43q-29 23 -30.5 43t20.5 55q82 129 186.5 195.5t251.5 66.5q92 0 173 -34.5 t141.5 -93t95.5 -136.5t35 -166q0 -80 -21.5 -143.5t-59.5 -119.5t-88 -111.5t-108 -118.5l-397 -432h694q35 0 35 -31v-135q0 -31 -35 -31h-950q-35 0 -35 31z" />
<glyph unicode="3" horiz-adv-x="1271" d="M53.5 128q-20.5 13 1.5 50l49 88q20 37 40 31t55 -23q72 -35 157.5 -63.5t190.5 -28.5q96 0 168.5 30t122 76t74 100t24.5 104q0 51 -27.5 101t-89 88t-157 59.5t-230.5 17.5q-33 0 -46 9t-28 30l-41 61q-18 29 -20 42t20 36l414 403h-592q-35 0 -35 31v135q0 31 35 31 h867q35 0 34 -31v-102q0 -33 -13 -48.5t-36 -37.5l-370 -369q133 -12 230 -54t159.5 -104.5t92.5 -140.5t30 -157q0 -86 -37 -176.5t-111 -164t-184.5 -120.5t-257.5 -47q-76 0 -139.5 10t-115.5 26.5t-95 35t-80 36.5q-39 23 -59.5 36z" />
<glyph unicode="4" horiz-adv-x="1372" d="M68 369v71q0 39 7 52.5t17 29.5l709 979q12 16 20 25.5t23 9.5h131q31 0 31 -35v-971h141q35 0 35 -30v-131q0 -31 -35 -31h-141v-303q0 -35 -31 -35h-131q-31 0 -31 35v303h-711q-35 0 -34 31zM334 530h479v674z" />
<glyph unicode="5" horiz-adv-x="1361" d="M104.5 155q-16.5 11 1.5 40l72 106q14 25 30.5 20.5t45.5 -24.5q70 -47 165 -83t224 -36q61 0 128 13.5t124 46t94 87t37 138.5q0 80 -37 131t-93 81t-122.5 40t-128.5 10q-117 0 -191.5 -21.5t-103.5 -31.5t-40 -9t-38 13l-57 24q-23 10 -29 19.5t-2 38.5l58 749 q2 31 34 31h783q35 0 35 -31v-129q0 -31 -35 -30h-639l-33 -465q53 16 116.5 27.5t141.5 11.5q141 0 238.5 -29t161 -74t99.5 -99t52 -105.5t19.5 -92.5t3.5 -59t-3.5 -61.5t-19.5 -96.5t-52 -110.5t-99.5 -104.5t-162 -77.5t-239.5 -30.5q-66 0 -134.5 11t-133 29.5 t-121.5 44t-102 54.5q-31 23 -47.5 34z" />
<glyph unicode="6" horiz-adv-x="1355" d="M117 664q0 168 33.5 327.5t108.5 284.5t194.5 200.5t291.5 75.5q129 0 211 -27.5t136 -60.5q27 -16 38 -32.5t-4 -38.5l-63 -99q-16 -29 -33.5 -25.5t-46.5 23.5q-37 25 -96.5 43.5t-141.5 18.5q-109 0 -182.5 -45t-121.5 -118t-74.5 -164t-36.5 -183q47 51 149.5 90 t231.5 39q117 0 216 -36t170.5 -100.5t111.5 -154.5t40 -199q0 -119 -43 -211t-118.5 -154.5t-178 -95t-219.5 -32.5q-172 0 -283.5 59.5t-176 154.5t-89 216t-24.5 244zM342 483q0 -74 28.5 -130t76 -94t110.5 -57.5t133 -19.5t136.5 17.5t117.5 54.5t82 93t31 136 t-30 136.5t-79 91t-111.5 51t-125.5 16.5q-59 0 -125 -15t-120 -50t-89 -91.5t-35 -138.5z" />
<glyph unicode="7" horiz-adv-x="1267" d="M109 1378v123q0 35 30 35h973q31 0 31 -35v-84q0 -35 -4 -47t-13 -31l-555 -1304q-6 -16 -14 -25.5t-25 -9.5h-139q-31 0 -35 9.5t4 25.5q63 150 134 316.5t142 336.5t141.5 337t133.5 318h-774q-31 0 -30 35z" />
<glyph unicode="8" horiz-adv-x="1357" d="M100 446q0 123 45 215.5t146 151.5q-68 57 -97.5 138t-29.5 175q0 92 41 171t112.5 135.5t168.5 88t212 31.5t213.5 -31.5t170 -88t112.5 -135t41 -171.5q0 -94 -33 -175t-100 -138q100 -61 148 -153.5t48 -213.5q0 -127 -48 -215t-130 -143t-191.5 -80.5t-230.5 -25.5 t-229.5 25.5t-190 80.5t-130 143t-48.5 215zM289 442q0 -86 41 -138t101.5 -79.5t132 -37t132.5 -9.5t134 9.5t136.5 37t105.5 79.5t42 138q0 90 -42 142.5t-105.5 80t-136 35t-134.5 7.5q-61 0 -132.5 -7.5t-132 -35t-101.5 -80t-41 -142.5zM354 1133q0 -66 28 -109 t76 -69.5t109.5 -37t128.5 -10.5h29q76 0 135.5 10.5t100 37t63.5 69.5t23 109q0 49 -27 90t-74 70.5t-110.5 45t-139.5 15.5t-138 -15.5t-107 -45t-71 -70.5t-26 -90z" />
<glyph unicode="9" horiz-adv-x="1355" d="M121 1051q0 119 43 211t118.5 154.5t178 95t219.5 32.5q172 0 283.5 -59.5t176 -154.5t89 -216t24.5 -244q0 -168 -33.5 -327.5t-108.5 -284.5t-194.5 -200.5t-291.5 -75.5q-129 0 -211 27.5t-135 60.5q-27 16 -38.5 32.5t3.5 38.5l63 99q16 29 33.5 25.5t46.5 -23.5 q37 -25 96.5 -43.5t141.5 -18.5q106 0 181 45t123 118t74.5 164t36.5 183q-47 -51 -149.5 -90t-231.5 -39q-117 0 -216 36t-170.5 100.5t-111.5 154.5t-40 199zM313 1051q0 -80 30 -136.5t79 -91.5t110.5 -51t126.5 -16q59 0 125 15t120 50t89 91.5t35 138.5q0 74 -28.5 130 t-75.5 94t-110.5 57.5t-133.5 19.5q-72 0 -137.5 -17.5t-116.5 -54.5t-82 -93.5t-31 -135.5z" />
<glyph unicode=":" horiz-adv-x="647" d="M209 74v170q0 35 31 35h184q31 0 31 -35v-170q0 -35 -31 -35h-184q-31 0 -31 35zM209 860v170q0 35 31 35h184q31 0 31 -35v-170q0 -35 -31 -35h-184q-31 0 -31 35z" />
<glyph unicode=";" horiz-adv-x="659" d="M170 -113q0 12 10 17q4 2 10 2q39 4 61.5 13t32 25.5t11.5 41t2 57.5h-66q-31 0 -30 35v170q0 35 30 35h185q31 0 30 -35v-166q0 -154 -56 -219.5t-195 -69.5q-12 0 -17 10q-2 4 -2 11zM201 860v170q0 35 30 35h185q31 0 30 -35v-170q0 -35 -30 -35h-185q-31 0 -30 35z " />
<glyph unicode="&#x3c;" horiz-adv-x="1351" d="M88 702v86q0 33 6 42.5t31 25.5l999 674q16 10 26.5 4t10.5 -23v-147q0 -27 -3 -36t-25 -23l-811 -560l811 -559q23 -14 25.5 -23t2.5 -36v-147q0 -16 -10 -22.5t-27 3.5l-999 674q-25 16 -31 25.5t-6 41.5z" />
<glyph unicode="=" horiz-adv-x="1396" d="M41 336v117q0 41 41 41h1073q41 0 41 -41v-117q0 -41 -41 -41h-1073q-41 0 -41 41zM41 815v117q0 41 41 41h1073q41 0 41 -41v-117q0 -41 -41 -41h-1073q-41 0 -41 41z" />
<glyph unicode="&#x3e;" horiz-adv-x="1351" d="M193 -20v147q0 27 3 36t25 23l811 559l-811 560q-23 14 -25.5 23t-2.5 36v147q0 16 10 22.5t26 -3.5l1000 -674q25 -16 31 -25.5t6 -42.5v-86q0 -33 -6.5 -42t-30.5 -25l-1000 -674q-16 -10 -26 -4t-10 23z" />
<glyph unicode="?" horiz-adv-x="1114" d="M93.5 1385.5q-3.5 11.5 12.5 25.5q78 68 187.5 102.5t228.5 34.5q78 0 160 -24.5t148.5 -74.5t109.5 -127t43 -181q0 -186 -100.5 -280.5t-298.5 -123.5l-9 -270q0 -41 -40 -41h-103q-41 0 -41 41l-6 379q0 41 35 41q78 4 145.5 14t117.5 36t79 72t29 121 q0 49 -20.5 90.5t-56.5 72t-85 48t-107 17.5q-74 0 -149.5 -19.5t-151.5 -72.5q-25 -16 -41 4l-69 88q-14 16 -17.5 27.5zM365 35v178q0 35 30 35h176q31 0 31 -35v-178q0 -35 -31 -35h-176q-31 0 -30 35z" />
<glyph unicode="@" horiz-adv-x="1751" d="M109 768q0 158 60 298t164.5 244.5t244 165t299.5 60.5q158 0 297 -60.5t243.5 -165t164.5 -244.5t60 -298q-2 -143 -42.5 -240.5t-103 -153t-137.5 -72.5t-144.5 -2t-124 60.5t-74.5 114.5q-10 -10 -31.5 -24.5t-50.5 -27.5t-63.5 -22.5t-69.5 -9.5q-74 0 -137.5 25.5 t-107.5 75t-66.5 119t-14.5 155.5q6 86 41 155.5t89 119t124 76t143 26.5q33 0 65 -10.5t56.5 -23.5t42 -28.5t23.5 -25.5l4 61q0 4 6 8t12 4h146q12 0 12 -12l-45 -532q-12 -150 129 -150q27 0 61.5 11.5t67.5 46t55.5 100t22.5 176.5q0 135 -52.5 255t-141.5 209 t-207.5 140t-251.5 51q-135 0 -255 -51t-209 -140t-140.5 -209t-51.5 -255t51.5 -255t140.5 -209t207.5 -140t253.5 -51q84 0 161 21.5t147 60.5q2 2 6 2q8 0 12 -7l45 -77q2 -4 2 -9q0 -8 -12 -14q-162 -90 -358 -90q-160 0 -299.5 60.5t-244 165t-164.5 244.5t-60 298z M629 766q-6 -47 3 -93t31.5 -83t60.5 -60.5t89 -23.5q39 0 78 14.5t70.5 46t54 80.5t31.5 119q6 72 -6.5 122t-38 80.5t-61.5 44t-75 13.5q-53 0 -96 -23.5t-72.5 -60.5t-47 -84t-21.5 -92z" />
<glyph unicode="A" horiz-adv-x="1585" d="M63 35l611 1472q8 18 16 23.5t31 5.5h94q23 0 31 -5t16 -24l611 -1472q2 -6 2 -11q-1 -8 -7 -14q-10 -10 -26 -10h-139q-27 0 -41 35l-119 291h-750l-119 -291q-14 -35 -41 -35h-139q-16 0 -26 9q-7 6 -7 15q0 5 2 11zM469 518h596l-297 727z" />
<glyph unicode="B" horiz-adv-x="1419" d="M170 35v1466q0 35 31 35h401q137 0 242.5 -23.5t177.5 -75t109.5 -135t37.5 -202.5q0 -61 -14 -110.5t-35.5 -84.5t-46 -57.5t-43.5 -30.5q86 -31 136.5 -76t75 -98t31.5 -107.5t7 -103.5q0 -238 -142.5 -335t-435.5 -97h-501q-31 0 -31 35zM365 870h237q80 0 146.5 5.5 t114.5 28t76 68.5t28 128q0 80 -28 129t-76 74.5t-114.5 35t-146.5 9.5h-237v-478zM367 199h309q80 0 151.5 4t127 26.5t88 69.5t32.5 133q0 84 -32.5 133t-88 75t-127 33t-151.5 7h-309v-481z" />
<glyph unicode="C" horiz-adv-x="1495" d="M111 766q0 162 64.5 305t175 249.5t257 168t310.5 61.5q94 0 183 -22.5t165 -63.5q47 -25 51 -42t-12 -52l-37 -72q-8 -16 -20.5 -20t-27 -1t-29.5 10t-28 13q-51 23 -109.5 38.5t-135.5 17.5q-123 0 -235 -46t-196 -126t-133 -187.5t-49 -230.5t49 -229.5t133 -186.5 t196 -126t235 -46q78 2 136 18.5t109 39.5q12 6 26.5 14t28 12t24.5 1t22 -21l28 -54q14 -25 22 -41q6 -13 5 -23v-6q-2 -12 -15.5 -22t-37.5 -24q-76 -43 -165 -64.5t-183 -21.5q-164 0 -310.5 60t-257 166.5t-175 248t-64.5 305.5z" />
<glyph unicode="D" horiz-adv-x="1542" d="M162 35v1466q0 35 31 35h389q162 0 303 -60.5t246.5 -165t166 -245.5t60.5 -301t-60.5 -299t-166 -242.5t-247 -163t-302.5 -59.5h-389q-31 0 -31 35zM360 193h222q121 0 226 44t184 121.5t125 181t46 224.5t-46 226.5t-125 184t-184.5 125t-225.5 46.5h-222v-1153z" />
<glyph unicode="E" horiz-adv-x="1206" d="M172 35v1466q0 35 31 35h796q31 0 31 -35v-133q0 -35 -31 -35h-632v-463h581q31 0 31 -34v-134q0 -35 -31 -34h-581v-465h632q31 0 31 -35v-133q0 -35 -31 -35h-796q-31 0 -31 35z" />
<glyph unicode="F" horiz-adv-x="1206" d="M172 35v1466q0 35 31 35h796q31 0 31 -35v-133q0 -35 -31 -35h-632v-463h581q31 0 31 -34v-134q0 -35 -31 -34h-581v-633q0 -35 -31 -35h-133q-31 0 -31 35z" />
<glyph unicode="G" horiz-adv-x="1585" d="M102 768q0 160 59.5 303t164 249.5t246 169t305.5 62.5q94 0 183 -22.5t165 -63.5q47 -25 51 -42t-12 -52l-37 -72q-8 -16 -20.5 -20t-27 -1t-29.5 10t-28 14q-51 23 -111.5 39t-138.5 18q-121 0 -226 -47t-184 -128t-124 -188.5t-45 -228.5q0 -119 44 -225.5t123 -187.5 t184.5 -129t227.5 -48q31 0 67 5t74 14.5t72.5 24t63.5 30.5v379h-283q-35 0 -35 31v137q0 31 35 30h447q35 0 35 -30v-559q0 -49 -9.5 -74t-44.5 -53q-16 -14 -56 -37t-97.5 -43.5t-126 -35.5t-137.5 -15q-162 0 -303.5 61t-246 168.5t-165 250t-60.5 306.5z" />
<glyph unicode="H" horiz-adv-x="1533" d="M182 35v1466q0 35 31 35h141q31 0 31 -35v-627h729v627q0 35 31 35h141q31 0 31 -35v-1466q0 -35 -31 -35h-141q-31 0 -31 35v641h-729v-641q0 -35 -31 -35h-141q-31 0 -31 35z" />
<glyph unicode="I" horiz-adv-x="610" d="M227 35v1466q0 35 31 35h139q31 0 31 -35v-1466q0 -35 -31 -35h-139q-31 0 -31 35z" />
<glyph unicode="J" horiz-adv-x="1144" d="M24 88q-1 3 -1 7q0 8 6 18l63 116q12 23 27.5 17t34.5 -17q23 -12 72.5 -32.5t109.5 -20.5q78 0 147.5 23.5t120.5 70.5t81 118t30 165v948q0 35 30 35h134q31 0 30 -35v-948q0 -135 -45 -240.5t-123.5 -179.5t-183 -112.5t-221.5 -38.5q-55 0 -100.5 9t-81 23.5 t-61 27.5t-42.5 24q-23 12 -27 22z" />
<glyph unicode="K" horiz-adv-x="1480" d="M199 35v1466q0 35 30 35h142q31 0 30 -35v-776l656 772q12 12 19 20.5t16.5 12.5t22.5 5t36 1h154q18 0 23 -9t-5 -24l-479 -563l536 -883q10 -17 10 -29q0 -28 -57 -28h-100q-20 0 -30.5 1t-18.5 7t-16.5 18.5t-22.5 36.5l-443 719l-301 -358v-389q0 -35 -30 -35h-142 q-31 0 -30 35z" />
<glyph unicode="L" horiz-adv-x="1183" d="M215 35v1466q0 35 31 35h139q31 0 31 -35v-1300h608q35 0 35 -31v-139q0 -31 -35 -31h-778q-31 0 -31 35z" />
<glyph unicode="M" horiz-adv-x="1935" d="M176 35v1466q0 35 31 35h141q16 0 25.5 -9t17.5 -26l576 -1192l575 1192q16 35 43 35h141q31 0 31 -35v-1466q0 -35 -31 -35h-135q-31 0 -30 35v1032l-492 -1032q-8 -16 -17.5 -25.5t-25.5 -9.5h-119q-27 0 -43 35l-491 1032v-1032q0 -35 -31 -35h-135q-31 0 -31 35z" />
<glyph unicode="N" horiz-adv-x="1525" d="M162 35v1466q0 35 31 35h126q16 0 23.5 -9t17.5 -26l764 -1116v1116q0 35 31 35h137q31 0 31 -35v-1466q0 -35 -31 -35h-127q-16 0 -23 9t-18 26l-762 1114v-1114q0 -35 -30 -35h-139q-31 0 -31 35z" />
<glyph unicode="O" horiz-adv-x="1740" d="M113 778q0 162 62.5 303.5t170 246t248.5 164.5t301 60t302 -60t248.5 -164.5t169 -246t62.5 -303.5t-62.5 -306t-169 -253.5t-248.5 -173t-302 -63.5t-301 63.5t-248.5 173t-170 253.5t-62.5 306zM311 778q0 -121 47.5 -230.5t127 -192.5t185 -132t224.5 -49t225.5 49 t186 132t127 192.5t47.5 230.5q0 123 -47.5 228.5t-127 183.5t-186 122t-225.5 44t-224.5 -44t-185 -122t-127 -183.5t-47.5 -228.5z" />
<glyph unicode="P" horiz-adv-x="1368" d="M158 35v1466q0 35 30 35h480q297 0 433 -118t136 -351q0 -231 -136 -347t-433 -116h-312v-569q0 -35 -30 -35h-138q-31 0 -30 35zM356 797h312q76 0 144.5 10t118.5 40t79.5 83t29.5 137t-29.5 137t-79.5 84t-119 42t-144 11h-312v-544z" />
<glyph unicode="Q" horiz-adv-x="1740" d="M113 778q0 162 62.5 303.5t170 246t248.5 164.5t301 60t302 -60t248.5 -164.5t169 -246t62.5 -303.5q0 -129 -39 -245.5t-108.5 -215t-165.5 -173t-209 -115.5l72 -215q6 -18 -1 -26.5t-24 -8.5h-141q-27 0 -39 35l-55 172q-18 -2 -36 -3t-36 -1q-160 0 -301 63.5 t-248.5 173t-170 253.5t-62.5 306zM311 778q0 -121 46 -230.5t125 -191.5t184.5 -130t224.5 -48h12l-80 258q-6 18 1 26.5t24 8.5h141q31 0 39 -35l68 -221q82 33 152.5 89t122.5 130t81 162t29 182q0 123 -47.5 228.5t-127 183.5t-186 122t-225.5 44t-224.5 -44t-185 -122 t-127 -183.5t-47.5 -228.5z" />
<glyph unicode="R" horiz-adv-x="1452" d="M172 35v1466q0 35 31 35h477q297 0 433 -118t136 -351q0 -172 -74.5 -278.5t-232.5 -153.5l326 -565q22 -37 22 -52v-6q-6 -12 -53 -12h-125q-25 0 -35 8t-28 41l-324 555h-354v-569q0 -35 -31 -35h-137q-31 0 -31 35zM371 799h309q78 0 145.5 10t118.5 39t80 82t29 137 t-29 137t-80 84t-118.5 42t-145.5 11h-309v-542z" />
<glyph unicode="S" horiz-adv-x="1259" d="M113 115q0 17 10 35l45 81q20 37 37.5 35t52.5 -18q25 -12 62.5 -24.5t79.5 -21.5t87 -16.5t86 -7.5q147 4 241.5 68.5t103.5 179.5q-4 55 -36 96t-81 73t-110.5 57.5t-125.5 47.5l-55 19q-74 27 -141.5 58.5t-120.5 76.5t-86 106.5t-37 147.5q0 88 32.5 169t98.5 142.5 t164 97t227 35.5q94 0 182.5 -22.5t165.5 -63.5q47 -25 52.5 -39t-11.5 -49l-43 -88q-14 -27 -36.5 -17.5t-49.5 21.5q-59 31 -122.5 47.5t-141.5 18.5q-61 0 -118.5 -13.5t-103.5 -43t-74 -76.5t-28 -115q0 -72 56.5 -115t159.5 -86h-3l138 -51l-2 2q82 -29 161.5 -61.5 t143 -79.5t102.5 -113.5t39 -163.5q0 -57 -21.5 -137t-81 -151.5t-165 -122.5t-273.5 -51q-94 0 -204.5 21.5t-221.5 78.5q-34 14 -34 33z" />
<glyph unicode="T" horiz-adv-x="1300" d="M82 1372v133q0 31 35 31h1065q35 0 35 -31v-133q0 -31 -35 -31h-439v-1306q0 -35 -30 -35h-131q-31 0 -31 35v1306h-434q-35 0 -35 31z" />
<glyph unicode="U" horiz-adv-x="1499" d="M166 555v946q0 35 31 35h133q31 0 30 -35v-946q0 -78 31 -145.5t82 -119.5t120 -82t144 -30q76 0 145.5 30t121 82t82 119.5t30.5 145.5v946q0 35 31 35h131q31 0 31 -35v-946q0 -117 -45 -221.5t-123 -182t-182.5 -122.5t-221.5 -45t-220 45t-182 122.5t-124 182 t-45 221.5z" />
<glyph unicode="V" horiz-adv-x="1484" d="M31 1501q-3 8 -3 14.5t3 10.5q6 10 22 10h148q25 0 34 -9t15 -26l487 -1171l490 1171q6 16 15 25.5t34 9.5h147q17 0 23 -9q3 -5 3 -12q0 -6 -3 -14l-619 -1466q-14 -35 -43 -35h-94q-29 0 -43 35z" />
<glyph unicode="W" horiz-adv-x="2177" d="M47 1501q-3 8 -3 14.5t3 10.5q6 10 23 10h139q25 0 35 -9t14 -26l393 -1153l342 1153q10 35 43 35h107q33 0 43 -35l342 -1153l393 1153q4 16 14.5 25.5t34.5 9.5h139q17 0 23 -9q3 -5 3 -12q0 -6 -3 -14l-506 -1466q-14 -35 -43 -35h-115q-33 0 -43 35l-335 1118 l-336 -1118q-10 -35 -43 -35h-115q-29 0 -43 35z" />
<glyph unicode="X" horiz-adv-x="1458" d="M64 1526q8 10 24 10h156q25 0 34 -9t19 -26l365 -553l364 553q10 16 19.5 25.5t33.5 9.5h156q17 0 25 -9q4 -4 3 -9q0 -7 -6 -17l-473 -731l463 -735q10 -16 2 -25.5t-24 -9.5h-150q-25 0 -34 9.5t-19 25.5q-92 143 -179 282.5t-181 286.5l-361 -569q-10 -16 -19.5 -25.5 t-33.5 -9.5h-150q-16 0 -24 9t2 26l461 735l-471 731q-6 9 -6 16q0 5 4 9z" />
<glyph unicode="Y" horiz-adv-x="1429" d="M-12 1526q8 10 24 10h154q25 0 34 -9t19 -26l455 -717l454 717q10 16 19.5 25.5t34.5 9.5h153q16 0 25 -9q3 -4 3 -10q0 -7 -5 -16l-584 -919q0 -125 -1 -273.5t-1 -273.5q0 -35 -31 -35h-135q-31 0 -31 35q0 125 -1 273.5t-1 273.5l-583 919q-6 9 -6 16q0 5 4 9z" />
<glyph unicode="Z" horiz-adv-x="1339" d="M143 35v123q0 23 7.5 39t25.5 45l705 1093h-707q-31 0 -31 35v131q0 35 31 35h930q31 0 31 -35v-119q0 -25 -8.5 -42t-36.5 -58q-92 -141 -177.5 -273t-170.5 -264.5t-170 -265.5t-177 -274h709q31 0 31 -35v-135q0 -35 -31 -35h-930q-31 0 -31 35z" />
<glyph unicode="[" horiz-adv-x="972" d="M268 -254v1798q0 35 31 35h434q31 0 31 -35v-119q0 -35 -31 -34h-268v-1491h268q31 0 31 -35v-119q0 -35 -31 -35h-434q-31 0 -31 35z" />
<glyph unicode="\" horiz-adv-x="847" d="M172 1778q-6 35 29 34h133q29 0 35 -34l340 -1979q6 -35 -29 -35h-135q-29 0 -35 35z" />
<glyph unicode="]" horiz-adv-x="972" d="M207 -135q0 35 31 35h268v1491h-268q-31 0 -31 34v119q0 35 31 35h434q31 0 30 -35v-1798q0 -35 -30 -35h-434q-31 0 -31 35v119z" />
<glyph unicode="^" horiz-adv-x="1024" d="M107.5 1162.5q1.5 13.5 29.5 60.5l166 270q12 18 20.5 30.5t24.5 12.5h213q16 0 24.5 -13.5t20.5 -29.5l166 -270q29 -47 30 -60.5t-40 -13.5h-109q-23 0 -31 8t-22 25l-145 192l-146 -192q-14 -16 -22 -24.5t-31 -8.5h-109q-41 0 -39.5 13.5z" />
<glyph unicode="_" horiz-adv-x="1445" d="M41 -55q0 41 41 41h1241q41 0 41 -41v-119q0 -41 -41 -41h-1241q-41 0 -41 41v119z" />
<glyph unicode="`" horiz-adv-x="1024" d="M209.5 1767q1.5 11 34.5 27l108 47q33 12 43.5 -1t26.5 -36l141 -231q29 -47 30 -60.5t-40 -13.5h-109q-23 0 -30.5 8.5t-22.5 24.5l-160 197q-23 27 -21.5 38z" />
<glyph unicode="a" horiz-adv-x="1224" d="M102 365q0 92 41 162.5t112 118.5t164 72.5t197 24.5q49 0 127 -18t160 -59q-2 51 -19.5 98t-51 84t-83 59.5t-114.5 24.5q-13 1 -26 1q-32 0 -58 -4q-37 -5 -67.5 -14.5t-59.5 -23.5t-59 -31l4 2q-41 -27 -55.5 -29t-39.5 27l-43 60q-16 23 -10 40t49 46q39 25 76 46 t80 35.5t94 22.5t117 8q84 0 167 -25.5t148.5 -87t105.5 -165t40 -258.5v-547q0 -35 -31 -35h-135q-29 0 -29 35v80q-55 -43 -110.5 -70t-108.5 -40t-101 -18t-87 -5q-66 0 -129.5 20.5t-116.5 59t-91 97t-53 136.5q-2 16 -3 32.5t-1 37.5zM295 371q0 -94 67.5 -146.5 t163.5 -52.5q61 0 128 19.5t121 56.5t89 91t35 122q-59 39 -134 69.5t-161 30.5q-57 0 -112.5 -10t-99.5 -32.5t-70.5 -59.5t-26.5 -88z" />
<glyph unicode="b" horiz-adv-x="1361" d="M139 35v1466q0 35 31 35h137q31 0 31 -35v-514q53 53 134 92t192 39q117 0 218 -44t174.5 -119.5t115.5 -180t42 -223.5t-42 -222.5t-115.5 -180t-175 -121.5t-217.5 -45q-106 0 -189.5 42t-136.5 95v-84q0 -35 -31 -35h-139q-29 0 -29 35zM338 549q0 -88 25.5 -157.5 t69.5 -118t103.5 -74t127.5 -25.5q78 0 144 31t114.5 82t76 119.5t27.5 144.5q0 78 -27.5 146.5t-76 119.5t-115 81t-143.5 30q-68 0 -127.5 -25.5t-103.5 -75t-69.5 -120t-25.5 -158.5z" />
<glyph unicode="c" horiz-adv-x="1107" d="M96 553q0 119 45 222.5t122 180t181.5 121.5t221.5 45q80 0 152.5 -20.5t137.5 -59.5q41 -23 49.5 -40t-6.5 -39l-41 -68q-16 -29 -31.5 -36t-35.5 7q-61 41 -116.5 54.5t-108.5 13.5q-80 0 -148.5 -31t-119 -83t-79 -121.5t-28.5 -145.5q0 -78 28.5 -146.5t79 -121 t119 -83t148.5 -30.5q57 0 116.5 16.5t116.5 57.5q23 16 33 19t26 -21l58 -80q13 -19 13 -32q0 -15 -32 -40q-74 -55 -159.5 -80.5t-171.5 -25.5q-117 0 -221.5 44t-181.5 120.5t-122 180t-45 222.5z" />
<glyph unicode="d" horiz-adv-x="1361" d="M109 551q0 119 42 223.5t115.5 180t175 119.5t217.5 44q111 0 192 -39t134 -92v514q0 35 31 35h137q31 0 31 -35v-1466q0 -35 -29 -35h-139q-31 0 -31 35v84q-53 -53 -136 -95t-190 -42q-117 0 -218 45t-174.5 121.5t-115.5 180t-42 222.5zM297 551q0 -76 27.5 -144.5 t76 -119.5t115 -82t143.5 -31q68 0 127.5 25.5t103.5 74t69.5 118t25.5 157.5t-25.5 158.5t-69.5 120t-103.5 75t-127.5 25.5q-78 0 -144 -30t-114.5 -81t-76 -119.5t-27.5 -146.5z" />
<glyph unicode="e" horiz-adv-x="1339" d="M90 549q0 119 43 222t119 180t177 122t218 45q119 0 218.5 -45t172 -123t112.5 -184.5t40 -228.5q0 -43 -6 -60.5t-49 -17.5h-846q14 -61 47 -115.5t82 -93.5t109.5 -61.5t129.5 -22.5q84 0 161 29.5t132 85.5q23 20 37 34.5t41 -10.5l66 -67q33 -31 23.5 -48.5 t-32.5 -39.5q-78 -78 -190.5 -123t-237.5 -45q-117 0 -220 44t-180 120.5t-122 180t-45 222.5zM295 641h692q-14 61 -44 113.5t-73 92.5t-99 62.5t-124 22.5t-125 -22.5t-103 -61.5t-78 -92.5t-46 -114.5z" />
<glyph unicode="f" horiz-adv-x="782" d="M111 938v131q0 31 34 31h113q0 119 24.5 205t80 141t145.5 80.5t223 25.5q35 0 35 -30v-136q0 -28 -35 -28q-88 0 -142 -13.5t-83 -42t-39 -78.5t-10 -124h256q35 0 35 -31v-131q0 -29 -35 -29h-256v-874q0 -35 -31 -35h-139q-29 0 -29 35v874h-113q-35 0 -34 29z" />
<glyph unicode="g" horiz-adv-x="1361" d="M104 551q0 119 42 223.5t116 180t175.5 119.5t217.5 44q111 0 193 -42t135 -95v84q0 35 31 35h133q31 0 31 -35v-844q0 -186 -50.5 -312t-130 -203t-178 -109.5t-194.5 -32.5q-57 0 -108.5 6t-104 23.5t-106.5 46t-116 75.5q-18 14 -24 28.5t22 49.5l60 68q23 27 39 24.5 t37 -18.5q70 -55 137 -82t164 -27q49 0 103 15.5t102.5 52.5t86 101.5t54.5 166.5q-53 -45 -129 -78.5t-187 -33.5q-117 0 -218 45t-175 121.5t-116 180t-42 222.5zM293 551q0 -76 27.5 -144.5t75.5 -121t115 -83t144 -30.5q68 0 128.5 25.5t104.5 75t69.5 119t25.5 157.5 t-25.5 158.5t-69.5 120t-104.5 75t-128.5 25.5q-78 0 -144.5 -30t-114.5 -81t-75.5 -119.5t-27.5 -146.5z" />
<glyph unicode="h" horiz-adv-x="1280" d="M143 35v1466q0 35 29 35h137q31 0 31 -35v-487q49 41 126 72.5t181 31.5q92 0 181.5 -26.5t160 -84t113.5 -144.5t43 -206v-622q0 -35 -31 -35h-135q-29 0 -29 35v624q0 115 -77.5 192t-225.5 77q-74 0 -132 -24.5t-97 -63.5t-59.5 -87t-20.5 -94v-624q0 -35 -31 -35 h-135q-29 0 -29 35z" />
<glyph unicode="i" horiz-adv-x="501" d="M166 1294v170q0 35 31 35h184q31 0 31 -35v-170q0 -35 -31 -34h-184q-31 0 -31 34zM190 35q0 -35 29 -35h139q31 0 31 35v1030q0 35 -31 35h-137q-31 0 -31 -35v-1030z" />
<glyph unicode="j" horiz-adv-x="575" d="M-39 -285v-118q0 -31 35 -31q133 0 223 25.5t145.5 81t80 141.5t24.5 204v1047q0 35 -31 35h-137q-31 0 -31 -35v-1047q0 -74 -10 -126t-38.5 -84.5t-83 -48t-142.5 -15.5q-35 0 -35 -29zM246 1294v170q0 35 30 35h185q31 0 31 -35v-170q0 -34 -29 -34h-2h-185 q-31 0 -30 34z" />
<glyph unicode="k" horiz-adv-x="1130" d="M168 35v1466q0 35 31 35h135q31 0 31 -35v-831l374 409q12 12 19.5 20.5t16.5 12.5t21.5 5t37.5 1h155q10 0 18.5 -8t-8.5 -29l-350 -395l451 -666q10 -16 10 -23t-6 -11t-14.5 -4h-14.5h-131q-23 0 -38 4t-34 30l-362 525l-145 -168v-338q0 -35 -31 -35h-137 q-29 0 -29 35z" />
<glyph unicode="l" horiz-adv-x="516" d="M195 35v1466q0 35 30 35h137q31 0 31 -35v-1466q0 -35 -31 -35h-139q-29 0 -28 35z" />
<glyph unicode="m" horiz-adv-x="2156" d="M117 35v1030q0 35 28 35h136q31 0 30 -35v-51q51 41 127 72.5t180 31.5q113 0 221.5 -42t180.5 -128q72 88 177.5 129t219.5 41q92 0 181.5 -26.5t160 -84t114.5 -144.5t44 -206v-622q0 -35 -31 -35h-135q-29 0 -29 35v624q0 115 -77.5 192t-227.5 77q-72 0 -127 -19.5 t-93 -54.5t-57.5 -82t-21.5 -102v-635q0 -35 -31 -35h-135q-29 0 -28 35v624q0 115 -78 192t-228 77q-74 0 -131 -24.5t-96 -63.5t-59.5 -87t-20.5 -94v-624q0 -35 -30 -35h-136q-29 0 -28 35z" />
<glyph unicode="n" d="M139 35v1030q0 35 29 35h137q31 0 31 -35v-51q49 41 126 72.5t181 31.5q92 0 181 -26.5t160 -84t114 -144.5t43 -206v-622q0 -35 -31 -35h-135q-29 0 -29 35v624q0 115 -77.5 192t-225.5 77q-74 0 -132 -24.5t-97 -63.5t-59.5 -87t-20.5 -94v-624q0 -35 -31 -35h-135 q-29 0 -29 35z" />
<glyph unicode="o" horiz-adv-x="1359" d="M88 549q0 119 45 222t122 180t180 122t220 45q119 0 222.5 -45t181.5 -122t123 -180t45 -222t-45 -222.5t-123 -180t-181.5 -120.5t-222.5 -44q-117 0 -220 44t-180 120.5t-122 180t-45 222.5zM283 549q0 -78 28.5 -147.5t77.5 -122t117.5 -83t148.5 -30.5t149.5 30.5 t120 83t80 122t29.5 147.5q0 76 -29.5 145.5t-80 121.5t-120 84t-149.5 32t-148.5 -32t-117.5 -84t-77.5 -121.5t-28.5 -145.5z" />
<glyph unicode="p" horiz-adv-x="1372" d="M141 -401v1466q0 35 29 35h139q31 0 31 -35v-84q53 53 136 95t190 42q117 0 218 -45t175 -122t116 -180t42 -222q0 -121 -42 -224.5t-116 -179t-175.5 -119.5t-217.5 -44q-111 0 -192 38.5t-134 92.5v-514q0 -35 -31 -35h-137q-31 0 -31 35zM340 551q0 -90 25.5 -159.5 t69.5 -119t103.5 -75t127.5 -25.5q78 0 144.5 29.5t114.5 81t75.5 120t27.5 146.5q0 76 -27.5 144.5t-75.5 119.5t-115 82t-144 31q-68 0 -127.5 -26t-103.5 -74t-69.5 -117.5t-25.5 -157.5z" />
<glyph unicode="q" horiz-adv-x="1361" d="M92 549q0 119 42 222t116 180t175 122t218 45q106 0 189 -42t137 -95v84q0 35 30 35h140q29 0 28 -35v-1466q0 -35 -30 -35h-138q-31 0 -30 35v514q-53 -53 -134 -92t-192 -39q-117 0 -218 44t-175 119.5t-116 179t-42 224.5zM281 549q0 -78 27.5 -146.5t75.5 -120 t114.5 -81t144.5 -29.5q68 0 127 25.5t103.5 75t70 119t25.5 159.5q0 88 -25.5 157.5t-70 117.5t-103.5 74t-127 26q-78 0 -144.5 -31t-114.5 -82t-75.5 -119.5t-27.5 -144.5z" />
<glyph unicode="r" horiz-adv-x="1079" d="M141 35v1030q0 35 29 35h137q31 0 31 -35v-51q49 41 125 72.5t182 31.5q72 0 144.5 -16.5t134.5 -50.5q27 -17 41 -27q8 -6 8 -17q0 -10 -6 -26l-47 -96q-16 -27 -33 -27t-51 21q-37 23 -84 35t-107 12q-74 0 -132 -24.5t-97 -63.5t-59.5 -86t-20.5 -93v-624 q0 -35 -31 -35h-135q-29 0 -29 35z" />
<glyph unicode="s" horiz-adv-x="993" d="M84 93q-2 3 -2 7q0 12 14 37l45 82q16 29 38 20.5t50 -20.5q35 -16 82 -30.5t127 -16.5q18 0 59.5 4t82.5 18.5t72.5 42t31.5 70.5q0 39 -18.5 66.5t-50 46t-72.5 32t-86 25.5h2l-25 4q-63 18 -123.5 41t-108.5 57.5t-76 86t-28 127.5q0 86 36 148.5t93.5 101t130 57 t148.5 18.5t149.5 -16t130.5 -49q41 -23 46.5 -34t-9.5 -40l-43 -88q-16 -29 -34.5 -23t-53.5 23q-41 18 -91 29.5t-101 11.5q-41 0 -78 -7t-65.5 -23.5t-47 -43.5t-18.5 -65q0 -47 53 -77t129 -52l43 -15q63 -16 128 -39.5t118 -60.5t86 -93q31 -52 31 -128v-9 q0 -68 -30 -129t-86 -108q-56 -46 -139 -74q-77 -26 -176 -26h-14q-41 0 -84 6t-84 15t-76.5 22.5t-58.5 29.5q-41 27 -47 38z" />
<glyph unicode="t" horiz-adv-x="849" d="M59 940v131q0 29 35 29h113v401q0 35 29 35h139q31 0 31 -35v-401h256q35 0 34 -29v-131q0 -31 -34 -31h-256v-477q0 -74 10 -120t38.5 -72.5t83 -35.5t142.5 -9q35 0 35 -29v-135q0 -31 -35 -31q-133 0 -223 22.5t-145.5 73.5t-80 134t-24.5 202v477h-113q-35 0 -35 31z " />
<glyph unicode="u" d="M137 442v623q0 35 31 35h135q29 0 29 -35v-625q0 -115 77.5 -191.5t225.5 -76.5q74 0 132 24.5t97 63.5t59.5 87t20.5 93v625q0 35 31 35h135q29 0 29 -35v-1030q0 -35 -29 -35h-137q-31 0 -31 35v51q-49 -41 -126 -72.5t-181 -31.5q-92 0 -181 26.5t-160 84t-114 143.5 t-43 206z" />
<glyph unicode="v" horiz-adv-x="1216" d="M68 1065q-3 8 -3 14.5t3 10.5q6 10 22 10h133q25 0 35 -10.5t16 -24.5l312 -739l311 739q6 14 16.5 24.5t34.5 10.5h133q17 0 23 -10q3 -5 3 -11t-3 -14l-432 -1030q-14 -35 -43 -35h-86q-29 0 -43 35z" />
<glyph unicode="w" horiz-adv-x="1888" d="M72 1065q-3 8 -3 14.5t3 10.5q6 10 22 10h133q25 0 35 -10.5t17 -24.5l307 -729l256 729q6 16 16 25.5t35 9.5h98q25 0 35 -9.5t16 -25.5l256 -729l308 729q6 14 16 24.5t35 10.5h133q16 0 22 -10q3 -5 4 -10q0 -7 -4 -15l-432 -1030q-14 -35 -43 -35h-86q-29 0 -43 35 l-266 747l-266 -747q-14 -35 -43 -35h-86q-29 0 -43 35z" />
<glyph unicode="x" horiz-adv-x="1085" d="M56 9q-4 4 -4 10q0 7 5 16l375 522l-358 508q-10 16 -2 25.5t24 9.5h154q25 0 35 -10.5t20 -24.5l238 -342l237 342q10 14 20.5 24.5t35.5 10.5h153q16 0 24.5 -9.5t-1.5 -25.5l-359 -508l375 -522q6 -9 6 -16q0 -5 -4 -9q-8 -10 -24 -10h-158q-25 0 -35 10t-20 25 l-250 358l-250 -358q-10 -14 -20.5 -24.5t-34.5 -10.5h-158q-16 0 -24 9z" />
<glyph unicode="y" horiz-adv-x="1228" d="M74 1065q-3 8 -3 14.5t3 10.5q6 10 22 10h133q25 0 35 -10.5t17 -24.5l370 -780l328 780q6 14 16.5 24.5t34.5 10.5h137q16 0 23 -10q4 -4 4 -10q0 -7 -4 -15l-449 -1036q-57 -127 -100 -215t-87 -143.5t-97.5 -81t-130.5 -25.5q-35 0 -73 7t-81 19q-41 10 -51 20.5 t2 45.5l33 98q10 33 24.5 31t40.5 -10q20 -6 43 -13.5t55 -7.5q39 0 67 17.5t52.5 53.5t48 90t56.5 130z" />
<glyph unicode="z" horiz-adv-x="1153" d="M115 41v84q0 29 8 46t31 44l641 698h-639q-41 0 -41 41v105q0 41 41 41h856q41 0 41 -41v-82q0 -31 -6.5 -45t-32.5 -43l-633 -701h631q41 0 41 -41v-106q0 -41 -41 -41h-856q-41 0 -41 41z" />
<glyph unicode="{" horiz-adv-x="1046" d="M141 578v131q0 10 7.5 17t17.5 7q59 2 97 14.5t59.5 40t29.5 75.5t8 122q0 12 -1 32.5t-1 42t-1 40t-1 30.5q0 94 15.5 165t58.5 121t121 81t205 45q10 2 20 0q8 -2 16.5 -9t12.5 -24l18 -79q4 -16 0 -26.5t-8 -14.5q-6 -8 -14 -9q-70 -14 -121 -24t-85 -31.5 t-53.5 -62.5t-23.5 -117v-46t1 -62.5t2 -62.5t1 -46q0 -74 -11 -124t-39 -82t-72 -50.5t-111 -28.5q68 -10 111.5 -28.5t71.5 -50.5t39 -82t11 -124q0 -16 -1 -45.5t-2 -62.5t-1 -63.5v-45.5q4 -76 23.5 -116.5t53.5 -62t85 -32t121 -24.5q8 -2 16 -8q4 -4 7 -14.5t-1 -26.5 l-18 -80q-4 -16 -12.5 -23.5t-16.5 -9.5q-10 -2 -20 0q-127 14 -205 45t-121 81t-58.5 120.5t-15.5 165.5q0 12 1 30.5t1 40t1 42t1 32.5q0 74 -8 122t-29.5 75.5t-59.5 40t-97 14.5q-10 0 -17.5 7t-7.5 18z" />
<glyph unicode="|" horiz-adv-x="825" d="M281 -528v2170q0 35 30 35h142q31 0 30 -35v-2170q0 -35 -30 -35h-142q-31 0 -30 35z" />
<glyph unicode="}" horiz-adv-x="1046" d="M223 -143q-8 29 6 41q6 6 17 8q70 14 121 24.5t84.5 32t53 62.5t23.5 116v45t-1 64t-2 62.5t-1 45.5q0 74 11.5 124t39 82t71.5 50.5t112 28.5q-68 10 -112 28.5t-71.5 50.5t-39 82t-11.5 124q0 16 1 46t2 62.5t1 62v46.5q-4 76 -23.5 117t-53 62.5t-85 31.5t-120.5 24 q-8 0 -15 9q-4 4 -8 14t0 27l19 79q6 29 26 33q8 2 23 0q127 -14 204.5 -45t120.5 -81t58.5 -120.5t15.5 -165.5q0 -12 -1 -30.5t-1 -40t-1 -42t-1 -32.5q0 -74 8 -122t29.5 -75.5t59.5 -40t98 -14.5q10 0 17 -7t7 -17v-131q0 -10 -7 -17.5t-17 -7.5q-59 -2 -97.5 -14.5 t-60 -40t-29.5 -75.5t-8 -122q0 -12 1 -32.5t1 -42t1 -40t1 -30.5q0 -94 -15.5 -165t-58.5 -121t-120.5 -81t-204.5 -45q-14 -2 -23 0q-20 4 -26 33z" />
<glyph unicode="~" horiz-adv-x="1044" d="M41 739.5q2 10.5 18 24.5l58 49q23 18 34 17t29 -25q29 -37 72 -53.5t78 0.5q57 29 114.5 61.5t133.5 42.5t158.5 -19.5t137.5 -95.5q16 -23 22.5 -36t-19.5 -33l-56 -45q-23 -20 -33 -14.5t-32 28.5q-27 31 -62 52.5t-84 21.5q-39 0 -70.5 -14.5t-62.5 -35t-64.5 -40 t-72.5 -27.5q-59 -14 -139 8.5t-148 106.5q-14 16 -12 26.5z" />
<glyph unicode="&#xa1;" horiz-adv-x="663" d="M186 1325v178q0 35 31 35h176q31 0 31 -35v-178q0 -35 -31 -35h-176q-31 0 -31 35zM201 41l8 1030q0 41 41 41h110q41 0 41 -41l9 -1030q0 -41 -41 -41h-127q-41 0 -41 41z" />
<glyph unicode="&#xa3;" horiz-adv-x="1306" d="M94 29v139q0 31 35 31h180v475h-170q-35 0 -35 28v125q0 31 35 31h170v156q0 106 33 196t94.5 155t149.5 100.5t198 35.5q25 0 101 -5t176 -38q41 -12 53 -25.5t2 -50.5l-29 -90q-16 -49 -37.5 -46t-60.5 16q-47 16 -95 25t-91 9q-61 0 -114.5 -16t-93.5 -54t-62.5 -98.5 t-22.5 -148.5v-121h506q35 0 35 -31v-125q0 -29 -35 -28h-506v-475h594q35 0 35 -31v-139q0 -29 -35 -29h-975q-35 0 -35 29z" />
<glyph unicode="&#xa5;" horiz-adv-x="1265" d="M-12 1526.5q8 9.5 24 9.5h162q25 0 34 -9t19 -26l365 -512l364 512q10 16 19.5 25.5t34.5 9.5h161q16 0 24.5 -9t-1.5 -26l-502 -710v-165t-1 -214.5t-1 -213v-163.5q0 -35 -31 -35h-135q-31 0 -30 35v163.5t-1 213t-1 214v165.5l-502 710q-10 16 -2 25.5zM88 463v131 q0 35 31 35h948q31 0 31 -35v-131q0 -12 -11.5 -23.5t-23.5 -11.5h-940q-12 0 -23.5 11.5t-11.5 23.5zM88 827v131q0 35 31 35h948q31 0 31 -35v-131q0 -12 -11.5 -23t-23.5 -11h-940q-12 0 -23.5 11t-11.5 23z" />
<glyph unicode="&#xa8;" horiz-adv-x="1024" d="M176 1714v154q0 35 29 35h168q29 0 28 -35v-154q0 -35 -28 -35h-168q-29 0 -29 35zM586 1714v154q0 35 30 35h168q29 0 29 -35v-154q0 -35 -29 -35h-168q-31 0 -30 35z" />
<glyph unicode="&#xa9;" horiz-adv-x="1783" d="M57 782q0 178 63.5 330t175.5 262.5t263.5 174t327.5 63.5q174 0 325.5 -63.5t264 -174t176 -262t63.5 -330.5q0 -176 -63.5 -328.5t-176 -265t-264 -176t-325.5 -63.5q-176 0 -327.5 63.5t-263.5 176t-175.5 265t-63.5 328.5zM168 782q0 -147 57.5 -278t154.5 -229.5 t228 -155t279 -56.5q147 0 278 56.5t228.5 155t154 229.5t56.5 278t-56.5 278.5t-154 230t-228.5 154.5t-278 56t-278.5 -56t-228.5 -154.5t-154.5 -229.5t-57.5 -279zM319 780q0 119 45.5 222.5t122 180.5t181 122t221.5 45q80 0 152.5 -20.5t138.5 -59.5q41 -23 49 -40.5 t-6 -39.5l-41 -68q-16 -29 -31.5 -36t-36.5 8q-61 41 -116.5 54t-108.5 13q-80 0 -148.5 -30.5t-119 -83t-79 -122t-28.5 -145.5q0 -78 28.5 -146.5t79 -120.5t119 -83t148.5 -31q57 0 116.5 16.5t116.5 57.5q23 16 33 19.5t27 -21.5l57 -80q16 -23 13.5 -36t-31.5 -36 q-74 -55 -160 -80.5t-172 -25.5q-117 0 -221.5 44t-181 121t-122 180.5t-45.5 221.5z" />
<glyph unicode="&#xaa;" horiz-adv-x="798" d="M104 899l238 625q2 2 4 6q6 6 14 6h68q8 0 14 -6q2 -4 4 -6l238 -625q4 -12 -4 -16q-4 -2 -10 -2h-86q-10 0 -13 6l-4 8l-41 102h-264l-39 -102l-4 -8q-4 -6 -12 -6h-88q-6 0 -10 2q-8 4 -5 16zM109 715q0 -41 41 -41h497q41 0 41 41v39q0 41 -41 41h-497q-41 0 -41 -41 v-39zM301 1116h184l-92 236z" />
<glyph unicode="&#xab;" horiz-adv-x="1370" d="M195 559v86q0 29 7 39t29 29l424 325q16 10 26.5 4t10.5 -22v-121q0 -27 -3 -34t-25 -27l-256 -236l256 -235q23 -23 25.5 -29t2.5 -33v-121q0 -16 -10 -22t-27 4l-424 326q-23 18 -29.5 28t-6.5 39zM604 567v70q0 29 7 39t30 29l424 333q16 10 26.5 4t10.5 -22v-121 q0 -27 -3 -34t-26 -27l-256 -236l256 -235q23 -23 26 -29t3 -33v-121q0 -16 -10.5 -22t-26.5 4l-424 334q-23 18 -30 28.5t-7 38.5z" />
<glyph unicode="&#xad;" horiz-adv-x="909" d="M78 561v119q0 41 41 41h667q41 0 41 -41v-119q0 -41 -41 -41h-667q-41 0 -41 41z" />
<glyph unicode="&#xae;" horiz-adv-x="827" d="M109 684v832q0 20 18 20h270q170 0 247 -66.5t77 -199.5q0 -195 -174 -246l184 -322q16 -25 12 -31.5t-30 -6.5h-70q-14 0 -20.5 5t-16.5 23l-184 316h-201v-324q0 -20 -16 -20h-78q-18 0 -18 20zM221 1116h176q43 0 82 6t67.5 22.5t45 46.5t16.5 79q0 47 -16.5 77.5 t-45 48t-67.5 23.5t-82 6h-176v-309z" />
<glyph unicode="&#xb0;" horiz-adv-x="927" d="M137 1221q0 68 25.5 128t69.5 104t103.5 69.5t127.5 25.5t128 -25.5t104 -69.5t70 -104.5t26 -127.5q0 -68 -26 -127.5t-70 -103.5t-104.5 -69.5t-127.5 -25.5q-68 0 -127.5 25.5t-103.5 69.5t-69.5 103.5t-25.5 127.5zM236 1221q0 -49 18 -90t49 -72t72 -48.5t88 -17.5 q98 0 163.5 64.5t65.5 163.5q0 98 -65.5 163.5t-163.5 65.5q-47 0 -88 -17.5t-72 -48t-49 -72.5t-18 -91z" />
<glyph unicode="&#xb1;" horiz-adv-x="1339" d="M150 326v137q0 31 34 31h949q35 0 34 -31v-137q0 -31 -34 -31h-949q-35 0 -34 31zM150 895v137q0 31 34 31h373v438q0 35 31 35h139q31 0 31 -35v-438h375q35 0 34 -31v-137q0 -31 -34 -31h-375v-182q0 -35 -31 -35h-139q-31 0 -31 35v182h-373q-35 0 -34 31z" />
<glyph unicode="&#xb4;" horiz-adv-x="1024" d="M222 1512.5q1 13.5 30 60.5l141 231q16 23 26.5 36t43.5 1l108 -47q33 -16 34 -27.5t-21 -37.5l-160 -197q-14 -16 -22.5 -24.5t-30.5 -8.5h-109q-41 0 -40 13.5z" />
<glyph unicode="&#xb6;" horiz-adv-x="1357" d="M172 1174q0 76 27.5 149.5t82 129.5t135.5 91t189 35h471q31 0 31 -35v-1509q0 -35 -29 -35h-123q-31 0 -30 35v733h-320q-109 0 -189.5 35t-135 92t-82 130t-27.5 149z" />
<glyph unicode="&#xb7;" horiz-adv-x="608" d="M160 477v170q0 35 30 35h185q31 0 31 -35v-170q0 -35 -31 -35h-185q-31 0 -30 35z" />
<glyph unicode="&#xb8;" horiz-adv-x="1024" d="M238 -272l90 292q4 12 10 20.5t22 14.5l134 49q23 8 18 -16l-53 -356q-2 -10 -8.5 -16.5t-22.5 -10.5h-172q-23 4 -18 23z" />
<glyph unicode="&#xba;" horiz-adv-x="874" d="M98 1212q0 70 27 130.5t73 106.5t107 72.5t129 26.5q70 0 130.5 -26.5t106.5 -72.5t72.5 -106.5t26.5 -130.5t-26.5 -130t-72.5 -106t-106.5 -72.5t-130.5 -26.5q-68 0 -129 26.5t-107 72.5t-73 106.5t-27 129.5zM145 715v39q0 41 41 41h498q41 0 41 -41v-39 q0 -41 -41 -41h-498q-41 0 -41 41zM207 1212q0 -49 18.5 -91t49 -72.5t71.5 -48t88 -17.5t88 17.5t72 48t49.5 72.5t18.5 91t-18.5 90t-49.5 72t-72 48.5t-88 17.5t-88 -17.5t-71.5 -48.5t-49 -71.5t-18.5 -90.5z" />
<glyph unicode="&#xbb;" horiz-adv-x="1370" d="M274 184v121q0 27 3.5 33t25.5 29l256 235l-256 236q-23 20 -26 27t-3 34v121q0 16 10.5 22.5t26.5 -4.5l424 -333q23 -18 30 -28.5t7 -39.5v-70q0 -29 -7 -39t-30 -28l-424 -334q-16 -10 -26.5 -4t-10.5 22zM684 184v121q0 27 3 33t26 29l256 235l-256 236 q-23 20 -26 27t-3 34v121q0 16 10.5 22.5t26.5 -4.5l424 -325q23 -18 30 -28.5t7 -39.5v-86q0 -29 -7.5 -39t-29.5 -28l-424 -326q-16 -10 -26.5 -4t-10.5 22z" />
<glyph unicode="&#xbf;" horiz-adv-x="1114" d="M128.5 152.5q-3.5 -11.5 12.5 -25.5q78 -68 187.5 -102.5t228.5 -34.5q78 0 160 24.5t148.5 74.5t109.5 127t43 181q0 186 -100.5 280.5t-298.5 123.5l-9 270q0 41 -40 41h-103q-41 0 -41 -41l-6 -379q0 -41 35 -41q78 -4 145.5 -14t117.5 -36t79 -72t29 -121 q0 -49 -20.5 -90.5t-56.5 -72t-85 -48t-107 -17.5q-74 0 -149.5 19.5t-151.5 72.5q-25 16 -41 -4l-69 -88q-14 -16 -17.5 -27.5zM400 1325q0 -35 30 -35h176q31 0 31 35v178q0 35 -31 35h-176q-31 0 -30 -35v-178z" />
<glyph unicode="&#xc0;" horiz-adv-x="1585" d="M63 35l611 1472q8 18 16 23.5t31 5.5h94q23 0 31 -5t16 -24l611 -1472q6 -16 -4.5 -25.5t-26.5 -9.5h-139q-27 0 -41 35l-119 291h-750l-119 -291q-14 -35 -41 -35h-139q-16 0 -26.5 9t-4.5 26zM449.5 1912q1.5 11 34.5 27l108 47q33 12 43.5 -1t26.5 -36l141 -231 q29 -47 30 -60.5t-40 -13.5h-109q-23 0 -30.5 8.5t-22.5 24.5l-160 197q-23 27 -21.5 38zM469 518h596l-297 727z" />
<glyph unicode="&#xc1;" horiz-adv-x="1585" d="M63 35l611 1472q8 18 16 23.5t31 5.5h94q23 0 31 -5t16 -24l611 -1472q6 -16 -4.5 -25.5t-26.5 -9.5h-139q-27 0 -41 35l-119 291h-750l-119 -291q-14 -35 -41 -35h-139q-16 0 -26.5 9t-4.5 26zM469 518h596l-297 727zM664 1657.5q1 13.5 30 60.5l141 231q16 23 26.5 36 t43.5 1l108 -47q33 -16 34 -27.5t-21 -37.5l-160 -197q-14 -16 -22.5 -24.5t-30.5 -8.5h-109q-41 0 -40 13.5z" />
<glyph unicode="&#xc2;" horiz-adv-x="1585" d="M63 35l611 1472q8 18 16 23.5t31 5.5h94q23 0 31 -5t16 -24l611 -1472q6 -16 -4.5 -25.5t-26.5 -9.5h-139q-27 0 -41 35l-119 291h-750l-119 -291q-14 -35 -41 -35h-139q-16 0 -26.5 9t-4.5 26zM443 1663q1 16 30 57l160 232q12 16 22.5 29.5t26.5 13.5h172 q16 0 26.5 -13.5t22.5 -29.5l160 -232q29 -41 30 -57t-40 -16h-109q-23 0 -31 8t-22 24l-123 154l-123 -154q-14 -16 -22.5 -24t-30.5 -8h-109q-41 0 -40 16zM469 518h596l-297 727z" />
<glyph unicode="&#xc3;" horiz-adv-x="1585" d="M63 35l611 1472q8 18 16 23.5t31 5.5h94q23 0 31 -5t16 -24l611 -1472q6 -16 -4.5 -25.5t-26.5 -9.5h-139q-27 0 -41 35l-119 291h-750l-119 -291q-14 -35 -41 -35h-139q-16 0 -26.5 9t-4.5 26zM337.5 1795.5q1.5 10.5 18.5 24.5l57 49q23 18 34 17.5t30 -25.5 q29 -37 71.5 -48t77.5 5q57 29 114.5 56.5t133.5 37.5t159 -19t138 -95q16 -23 22.5 -36t-20.5 -34l-55 -45q-23 -20 -33 -14t-33 28q-27 31 -61.5 42.5t-83.5 11.5q-39 0 -71 -11.5t-62.5 -28t-64.5 -32.5t-73 -25q-59 -14 -139 8.5t-147 106.5q-14 16 -12.5 26.5zM469 518 h596l-297 727z" />
<glyph unicode="&#xc4;" horiz-adv-x="1585" d="M63 35l611 1472q8 18 16 23.5t31 5.5h94q23 0 31 -5t16 -24l611 -1472q6 -16 -4.5 -25.5t-26.5 -9.5h-139q-27 0 -41 35l-119 291h-750l-119 -291q-14 -35 -41 -35h-139q-16 0 -26.5 9t-4.5 26zM450 1685v154q0 35 29 35h168q29 0 28 -35v-154q0 -35 -28 -35h-168 q-29 0 -29 35zM469 518h596l-297 727zM860 1685v154q0 35 30 35h168q29 0 29 -35v-154q0 -35 -29 -35h-168q-31 0 -30 35z" />
<glyph unicode="&#xc5;" horiz-adv-x="1585" d="M66 35l577 1392q-88 37 -143.5 117t-55.5 185q0 68 26 128t70 104t103 69.5t127 25.5t128 -25.5t104.5 -69.5t70 -104.5t25.5 -127.5q0 -104 -56.5 -184.5t-146.5 -117.5l580 -1392q6 -16 -4.5 -25.5t-26.5 -9.5h-139q-27 0 -41 35l-119 291h-750l-119 -291 q-14 -35 -40 -35h-140q-16 0 -26.5 9t-3.5 26zM471 518h596l-297 727zM543 1729q0 -49 18.5 -90.5t49 -72t71.5 -48t88 -17.5q98 0 163.5 64.5t65.5 163.5q0 98 -65.5 163.5t-163.5 65.5q-47 0 -88 -17.5t-71.5 -48t-49 -72.5t-18.5 -91z" />
<glyph unicode="&#xc6;" horiz-adv-x="2097" d="M-25.5 12q-5.5 6 2.5 23l795 1462q6 10 15.5 24.5t31.5 14.5h928q31 0 31 -35v-133q0 -35 -31 -35h-633v-463h582q31 0 30 -34v-134q0 -35 -30 -34h-582v-465h633q31 0 31 -35v-133q0 -35 -31 -35h-797q-31 0 -30 35v291h-564l-157 -291q-2 -4 -12.5 -19.5t-36.5 -15.5 h-132q-18 -2 -28 2t-15.5 10zM463 518h457v817h-21z" />
<glyph unicode="&#xc7;" horiz-adv-x="1495" d="M111 766q0 162 64.5 305t175 249.5t257 168t310.5 61.5q94 0 183 -22.5t165 -63.5q47 -25 51 -42t-12 -52l-37 -72q-8 -16 -20.5 -20t-27 -1t-29.5 10t-28 13q-51 23 -109.5 38.5t-135.5 17.5q-123 0 -235 -46t-196 -126t-133 -187.5t-49 -230.5t49 -229.5t133 -186.5 t196 -126t235 -46q78 2 136 18.5t109 39.5q12 6 26.5 14t28 12t24.5 1t22 -21l28 -54q14 -25 21.5 -41t5.5 -28.5t-15.5 -22.5t-37.5 -24q-76 -43 -165 -64.5t-183 -21.5q-164 0 -310.5 60t-257 166.5t-175 248t-64.5 305.5zM682 -272l90 292q4 12 10 20.5t23 14.5l133 49 q23 8 18 -16l-53 -356q-2 -10 -8 -16.5t-23 -10.5h-172q-23 4 -18 23z" />
<glyph unicode="&#xc8;" d="M172 35v1466q0 35 31 35h796q31 0 31 -35v-133q0 -35 -31 -35h-632v-463h581q31 0 31 -34v-134q0 -35 -31 -34h-581v-465h632q31 0 31 -35v-133q0 -35 -31 -35h-796q-31 0 -31 35zM309.5 1912q1.5 11 34.5 27l108 47q33 12 43.5 -1t26.5 -36l141 -231q29 -47 30 -60.5 t-40 -13.5h-109q-23 0 -30.5 8.5t-22.5 24.5l-160 197q-23 27 -21.5 38z" />
<glyph unicode="&#xc9;" d="M172 35v1466q0 35 31 35h796q31 0 31 -35v-133q0 -35 -31 -35h-632v-463h581q31 0 31 -34v-134q0 -35 -31 -34h-581v-465h632q31 0 31 -35v-133q0 -35 -31 -35h-796q-31 0 -31 35zM449 1657.5q1 13.5 30 60.5l141 231q16 23 26.5 36t43.5 1l108 -47q33 -16 34 -27.5 t-21 -37.5l-160 -197q-14 -16 -22.5 -24.5t-30.5 -8.5h-109q-41 0 -40 13.5z" />
<glyph unicode="&#xca;" d="M172 35v1466q0 35 31 35h796q31 0 31 -35v-133q0 -35 -31 -35h-632v-463h581q31 0 31 -34v-134q0 -35 -31 -34h-581v-465h632q31 0 31 -35v-133q0 -35 -31 -35h-796q-31 0 -31 35zM261 1663q1 16 30 57l160 232q12 16 22.5 29.5t26.5 13.5h172q16 0 26.5 -13.5 t22.5 -29.5l160 -232q29 -41 30 -57t-40 -16h-109q-23 0 -31 8t-22 24l-123 154l-123 -154q-14 -16 -22.5 -24t-30.5 -8h-109q-41 0 -40 16z" />
<glyph unicode="&#xcb;" d="M172 35v1466q0 35 31 35h796q31 0 31 -35v-133q0 -35 -31 -35h-632v-463h581q31 0 31 -34v-134q0 -35 -31 -34h-581v-465h632q31 0 31 -35v-133q0 -35 -31 -35h-796q-31 0 -31 35zM278 1685v154q0 35 29 35h168q29 0 28 -35v-154q0 -35 -28 -35h-168q-29 0 -29 35z M688 1685v154q0 35 30 35h168q29 0 29 -35v-154q0 -35 -29 -35h-168q-31 0 -30 35z" />
<glyph unicode="&#xcc;" horiz-adv-x="688" d="M41.5 1914q1.5 11 34.5 27l108 47q33 12 43.5 -1t26.5 -36l141 -231q29 -47 30 -60.5t-40 -13.5h-109q-23 0 -30.5 8.5t-22.5 24.5l-160 197q-23 27 -21.5 38zM237 35v1466q0 35 31 35h139q31 0 31 -35v-1466q0 -35 -31 -35h-139q-31 0 -31 35z" />
<glyph unicode="&#xcd;" horiz-adv-x="688" d="M235 35v1466q0 35 31 35h139q31 0 31 -35v-1466q0 -35 -31 -35h-139q-31 0 -31 35zM245 1657.5q1 13.5 30 60.5l141 231q16 23 26.5 36t43.5 1l108 -47q33 -16 34 -27.5t-21 -37.5l-160 -197q-14 -16 -22.5 -24.5t-30.5 -8.5h-109q-41 0 -40 13.5z" />
<glyph unicode="&#xce;" horiz-adv-x="688" d="M15 1663q1 16 30 57l160 232q12 16 22.5 29.5t26.5 13.5h172q16 0 26.5 -13.5t22.5 -29.5l160 -232q29 -41 30 -57t-40 -16h-109q-23 0 -31 8t-22 24l-123 154l-123 -154q-14 -16 -22.5 -24t-30.5 -8h-109q-41 0 -40 16zM237 35v1466q0 35 31 35h139q31 0 31 -35v-1466 q0 -35 -31 -35h-139q-31 0 -31 35z" />
<glyph unicode="&#xcf;" horiz-adv-x="688" d="M18 1685v154q0 35 29 35h168q29 0 28 -35v-154q0 -35 -28 -35h-168q-29 0 -29 35zM237 35v1466q0 35 31 35h139q31 0 31 -35v-1466q0 -35 -31 -35h-139q-31 0 -31 35zM428 1685v154q0 35 30 35h168q29 0 29 -35v-154q0 -35 -29 -35h-168q-31 0 -30 35z" />
<glyph unicode="&#xd0;" horiz-adv-x="1763" d="M33 715v116q0 41 41 41h219v629q0 35 31 35h389q162 0 303 -60.5t246.5 -165t166 -245.5t60.5 -301t-60.5 -299t-166 -242.5t-247 -163t-302.5 -59.5h-389q-31 0 -31 35v639h-219q-41 0 -41 41zM492 193h221q121 0 226 44t184 121.5t125 181t46 224.5t-46 226.5t-125 184 t-184 125t-226 46.5h-221v-474h407q41 0 41 -41v-116q0 -41 -41 -41h-407v-481z" />
<glyph unicode="&#xd1;" horiz-adv-x="1525" d="M162 35v1466q0 35 31 35h126q16 0 23.5 -9t17.5 -26l764 -1116v1116q0 35 31 35h137q31 0 31 -35v-1466q0 -35 -31 -35h-127q-16 0 -23 9t-18 26l-762 1114v-1114q0 -35 -30 -35h-139q-31 0 -31 35zM309.5 1793.5q1.5 10.5 18.5 24.5l57 49q23 18 34 17.5t30 -25.5 q29 -37 71.5 -48t77.5 5q57 29 114.5 56.5t133.5 37.5t159 -19t138 -95q16 -23 22.5 -36t-20.5 -34l-55 -45q-23 -20 -33 -14t-33 28q-27 31 -61.5 42.5t-83.5 11.5q-39 0 -71 -11.5t-62.5 -28t-64.5 -32.5t-73 -25q-59 -14 -139 8.5t-147 106.5q-14 16 -12.5 26.5z" />
<glyph unicode="&#xd2;" horiz-adv-x="1740" d="M113 778q0 162 62.5 303.5t170 246t248.5 164.5t301 60t302 -60t248.5 -164.5t169 -246t62.5 -303.5t-62.5 -306t-169 -253.5t-248.5 -173t-302 -63.5t-301 63.5t-248.5 173t-170 253.5t-62.5 306zM311 778q0 -121 47.5 -230.5t127 -192.5t185 -132t224.5 -49t225.5 49 t186 132t127 192.5t47.5 230.5q0 123 -47.5 228.5t-127 183.5t-186 122t-225.5 44t-224.5 -44t-185 -122t-127 -183.5t-47.5 -228.5zM602.5 1912q1.5 11 34.5 27l108 47q33 12 43.5 -1t26.5 -36l141 -231q29 -47 30 -60.5t-40 -13.5h-109q-23 0 -30.5 8.5t-22.5 24.5 l-160 197q-23 27 -21.5 38z" />
<glyph unicode="&#xd3;" horiz-adv-x="1740" d="M113 778q0 162 62.5 303.5t170 246t248.5 164.5t301 60t302 -60t248.5 -164.5t169 -246t62.5 -303.5t-62.5 -306t-169 -253.5t-248.5 -173t-302 -63.5t-301 63.5t-248.5 173t-170 253.5t-62.5 306zM311 778q0 -121 47.5 -230.5t127 -192.5t185 -132t224.5 -49t225.5 49 t186 132t127 192.5t47.5 230.5q0 123 -47.5 228.5t-127 183.5t-186 122t-225.5 44t-224.5 -44t-185 -122t-127 -183.5t-47.5 -228.5zM802 1657.5q1 13.5 30 60.5l141 231q16 23 26.5 36t43.5 1l108 -47q33 -16 34 -27.5t-21 -37.5l-160 -197q-14 -16 -22.5 -24.5t-30.5 -8.5 h-109q-41 0 -40 13.5z" />
<glyph unicode="&#xd4;" horiz-adv-x="1740" d="M113 778q0 162 62.5 303.5t170 246t248.5 164.5t301 60t302 -60t248.5 -164.5t169 -246t62.5 -303.5t-62.5 -306t-169 -253.5t-248.5 -173t-302 -63.5t-301 63.5t-248.5 173t-170 253.5t-62.5 306zM311 778q0 -121 47.5 -230.5t127 -192.5t185 -132t224.5 -49t225.5 49 t186 132t127 192.5t47.5 230.5q0 123 -47.5 228.5t-127 183.5t-186 122t-225.5 44t-224.5 -44t-185 -122t-127 -183.5t-47.5 -228.5zM568 1663q1 16 30 57l160 232q12 16 22.5 29.5t26.5 13.5h172q16 0 26.5 -13.5t22.5 -29.5l160 -232q29 -41 30 -57t-40 -16h-109 q-23 0 -31 8t-22 24l-123 154l-123 -154q-14 -16 -22.5 -24t-30.5 -8h-109q-41 0 -40 16z" />
<glyph unicode="&#xd5;" horiz-adv-x="1740" d="M113 778q0 162 62.5 303.5t170 246t248.5 164.5t301 60t302 -60t248.5 -164.5t169 -246t62.5 -303.5t-62.5 -306t-169 -253.5t-248.5 -173t-302 -63.5t-301 63.5t-248.5 173t-170 253.5t-62.5 306zM311 778q0 -121 47.5 -230.5t127 -192.5t185 -132t224.5 -49t225.5 49 t186 132t127 192.5t47.5 230.5q0 123 -47.5 228.5t-127 183.5t-186 122t-225.5 44t-224.5 -44t-185 -122t-127 -183.5t-47.5 -228.5zM462.5 1795.5q1.5 10.5 18.5 24.5l57 49q23 18 34 17.5t30 -25.5q29 -37 71.5 -48t77.5 5q57 29 114.5 56.5t133.5 37.5t159 -19t138 -95 q16 -23 22.5 -36t-20.5 -34l-55 -45q-23 -20 -33 -14t-33 28q-27 31 -61.5 42.5t-83.5 11.5q-39 0 -71 -11.5t-62.5 -28t-64.5 -32.5t-73 -25q-59 -14 -139 8.5t-147 106.5q-14 16 -12.5 26.5z" />
<glyph unicode="&#xd6;" horiz-adv-x="1740" d="M113 778q0 162 62.5 303.5t170 246t248.5 164.5t301 60t302 -60t248.5 -164.5t169 -246t62.5 -303.5t-62.5 -306t-169 -253.5t-248.5 -173t-302 -63.5t-301 63.5t-248.5 173t-170 253.5t-62.5 306zM311 778q0 -121 47.5 -230.5t127 -192.5t185 -132t224.5 -49t225.5 49 t186 132t127 192.5t47.5 230.5q0 123 -47.5 228.5t-127 183.5t-186 122t-225.5 44t-224.5 -44t-185 -122t-127 -183.5t-47.5 -228.5zM577 1683v154q0 35 29 35h168q29 0 28 -35v-154q0 -35 -28 -35h-168q-29 0 -29 35zM987 1683v154q0 35 30 35h168q29 0 29 -35v-154 q0 -35 -29 -35h-168q-31 0 -30 35z" />
<glyph unicode="&#xd7;" horiz-adv-x="1239" d="M162 272q-23 23 2 47l311 312l-307 305q-25 25 -2 47l96 96q23 23 47 -2l307 -307l310 311q23 23 45 2l98 -96q20 -23 -4 -47l-309 -309l311 -314q10 -10 12 -23t-8 -24l-98 -96q-23 -23 -45 2l-312 313l-311 -311q-25 -25 -47 -2z" />
<glyph unicode="&#xd8;" horiz-adv-x="1740" d="M113 778q0 162 62.5 303.5t170 246t248.5 164.5t301 60q8 0 15.5 -1t15.5 -1l39 228q6 35 34 34h136q35 0 28 -34l-45 -258q119 -37 221.5 -108t178 -167t117.5 -216t42 -251q0 -162 -62.5 -306t-169 -253.5t-248.5 -173t-302 -63.5q-10 0 -20.5 1t-20.5 1l-31 -185 q-6 -35 -35 -35h-133q-35 0 -28 35l37 219q-119 39 -219.5 113t-174 174.5t-115.5 221t-42 251.5zM311 778q0 -96 29 -184t81 -162t121.5 -131t153.5 -90l197 1145q-119 0 -224.5 -45t-185.5 -123t-126 -183.5t-46 -226.5zM887 174q121 0 229.5 49t189 132t128 192.5 t47.5 230.5q0 96 -30 182.5t-83 158t-126 123.5t-157 81z" />
<glyph unicode="&#xd9;" horiz-adv-x="1499" d="M166 555v946q0 35 31 35h133q31 0 30 -35v-946q0 -78 31 -145.5t82 -119.5t120 -82t144 -30q76 0 145.5 30t121 82t82 119.5t30.5 145.5v946q0 35 31 35h131q31 0 31 -35v-946q0 -117 -45 -221.5t-123 -182t-182.5 -122.5t-221.5 -45t-220 45t-182 122.5t-124 182 t-45 221.5zM457.5 1912q1.5 11 34.5 27l108 47q33 12 43.5 -1t26.5 -36l141 -231q29 -47 30 -60.5t-40 -13.5h-109q-23 0 -30.5 8.5t-22.5 24.5l-160 197q-23 27 -21.5 38z" />
<glyph unicode="&#xda;" horiz-adv-x="1499" d="M166 555v946q0 35 31 35h133q31 0 30 -35v-946q0 -78 31 -145.5t82 -119.5t120 -82t144 -30q76 0 145.5 30t121 82t82 119.5t30.5 145.5v946q0 35 31 35h131q31 0 31 -35v-946q0 -117 -45 -221.5t-123 -182t-182.5 -122.5t-221.5 -45t-220 45t-182 122.5t-124 182 t-45 221.5zM613 1662.5q1 13.5 30 60.5l141 231q16 23 26.5 36t43.5 1l108 -47q33 -16 34 -27.5t-21 -37.5l-160 -197q-14 -16 -22.5 -24.5t-30.5 -8.5h-109q-41 0 -40 13.5z" />
<glyph unicode="&#xdb;" horiz-adv-x="1499" d="M166 555v946q0 35 31 35h133q31 0 30 -35v-946q0 -78 31 -145.5t82 -119.5t120 -82t144 -30q76 0 145.5 30t121 82t82 119.5t30.5 145.5v946q0 35 31 35h131q31 0 31 -35v-946q0 -117 -45 -221.5t-123 -182t-182.5 -122.5t-221.5 -45t-220 45t-182 122.5t-124 182 t-45 221.5zM408 1663q1 16 30 57l160 232q12 16 22.5 29.5t26.5 13.5h172q16 0 26.5 -13.5t22.5 -29.5l160 -232q29 -41 30 -57t-40 -16h-109q-23 0 -31 8t-22 24l-123 154l-123 -154q-14 -16 -22.5 -24t-30.5 -8h-109q-41 0 -40 16z" />
<glyph unicode="&#xdc;" horiz-adv-x="1499" d="M166 555v946q0 35 31 35h133q31 0 30 -35v-946q0 -78 31 -145.5t82 -119.5t120 -82t144 -30q76 0 145.5 30t121 82t82 119.5t30.5 145.5v946q0 35 31 35h131q31 0 31 -35v-946q0 -117 -45 -221.5t-123 -182t-182.5 -122.5t-221.5 -45t-220 45t-182 122.5t-124 182 t-45 221.5zM416 1681v154q0 35 29 35h168q29 0 28 -35v-154q0 -35 -28 -35h-168q-29 0 -29 35zM826 1681v154q0 35 30 35h168q29 0 29 -35v-154q0 -35 -29 -35h-168q-31 0 -30 35z" />
<glyph unicode="&#xdd;" horiz-adv-x="1466" d="M-12 1526.5q8 9.5 24 9.5h154q25 0 34 -9t19 -26l455 -717l454 717q10 16 19.5 25.5t34.5 9.5h153q16 0 24.5 -9t-1.5 -26l-584 -919q0 -125 -1 -273.5t-1 -273.5q0 -35 -31 -35h-135q-31 0 -31 35q0 125 -1 273.5t-1 273.5l-583 919q-10 16 -2 25.5zM556 1657.5 q1 13.5 30 60.5l141 231q16 23 26.5 36t43.5 1l108 -47q33 -16 34 -27.5t-21 -37.5l-160 -197q-14 -16 -22.5 -24.5t-30.5 -8.5h-109q-41 0 -40 13.5z" />
<glyph unicode="&#xde;" horiz-adv-x="1378" d="M135 35v1460q0 35 31 35h137q31 0 31 -35v-256h311q297 0 433 -117.5t136 -351.5q0 -231 -136 -347t-433 -116h-311v-272q0 -35 -31 -35h-137q-31 0 -31 35zM334 502h311q76 0 144.5 10t118.5 39t80 82t30 137t-30 138.5t-80 85t-118.5 42t-144.5 11.5h-311v-545z" />
<glyph unicode="&#xdf;" horiz-adv-x="1380" d="M125 -166v1221q0 104 42 187t111.5 140.5t160.5 88t192 30.5q113 0 198.5 -35.5t143 -94t86 -134.5t28.5 -158q0 -25 -2 -59.5t-11 -71.5t-27.5 -74.5t-49.5 -70.5q223 -74 224 -395q0 -88 -27 -165t-82 -133.5t-142 -88t-210 -31.5h-242q-31 0 -31 35v127q0 35 31 34 h205q43 0 95 3.5t99.5 22.5t79 64.5t31.5 131.5t-22.5 136t-65.5 74.5t-103.5 30.5t-136.5 6h-182q-31 0 -31 35v117q0 35 31 35h111q135 0 203.5 66.5t68.5 170.5q0 45 -18.5 87t-55 74t-91 50.5t-124.5 18.5q-154 0 -222 -78t-68 -197v-1200q0 -31 -35 -31h-127 q-35 0 -35 31z" />
<glyph unicode="&#xe0;" horiz-adv-x="1224" d="M102 365q0 92 41 162.5t112 118.5t164 72.5t197 24.5q49 0 127 -18t160 -59q-2 51 -19.5 98t-51 84t-83 59.5t-114.5 24.5q-47 2 -84 -3t-67.5 -14.5t-59.5 -23.5t-59 -31l4 2q-41 -27 -55.5 -29t-39.5 27l-43 60q-16 23 -10 40t49 46q39 25 76 46t80 35.5t94 22.5t117 8 q84 0 167 -25.5t148.5 -87t105.5 -165t40 -258.5v-547q0 -35 -31 -35h-135q-29 0 -29 35v80q-55 -43 -110.5 -70t-108.5 -40t-101 -18t-87 -5q-66 0 -129.5 20.5t-116.5 59t-91 97t-53 136.5q-2 16 -3 32.5t-1 37.5zM295 371q0 -94 67.5 -146.5t163.5 -52.5q61 0 128 19.5 t121 56.5t89 91t35 122q-59 39 -134 69.5t-161 30.5q-57 0 -112.5 -10t-99.5 -32.5t-70.5 -59.5t-26.5 -88zM322.5 1511q1.5 11 34.5 27l108 47q33 12 43.5 -1t26.5 -36l141 -231q29 -47 30 -60.5t-40 -13.5h-109q-23 0 -30.5 8.5t-22.5 24.5l-160 197q-23 27 -21.5 38z" />
<glyph unicode="&#xe1;" horiz-adv-x="1224" d="M102 365q0 92 41 162.5t112 118.5t164 72.5t197 24.5q49 0 127 -18t160 -59q-2 51 -19.5 98t-51 84t-83 59.5t-114.5 24.5q-47 2 -84 -3t-67.5 -14.5t-59.5 -23.5t-59 -31l4 2q-41 -27 -55.5 -29t-39.5 27l-43 60q-16 23 -10 40t49 46q39 25 76 46t80 35.5t94 22.5t117 8 q84 0 167 -25.5t148.5 -87t105.5 -165t40 -258.5v-547q0 -35 -31 -35h-135q-29 0 -29 35v80q-55 -43 -110.5 -70t-108.5 -40t-101 -18t-87 -5q-66 0 -129.5 20.5t-116.5 59t-91 97t-53 136.5q-2 16 -3 32.5t-1 37.5zM295 371q0 -94 67.5 -146.5t163.5 -52.5q61 0 128 19.5 t121 56.5t89 91t35 122q-59 39 -134 69.5t-161 30.5q-57 0 -112.5 -10t-99.5 -32.5t-70.5 -59.5t-26.5 -88zM501 1256.5q1 13.5 30 60.5l141 231q16 23 26.5 36t43.5 1l108 -47q33 -16 34 -27.5t-21 -37.5l-160 -197q-14 -16 -22.5 -24.5t-30.5 -8.5h-109q-41 0 -40 13.5z " />
<glyph unicode="&#xe2;" horiz-adv-x="1224" d="M102 365q0 92 41 162.5t112 118.5t164 72.5t197 24.5q49 0 127 -18t160 -59q-2 51 -19.5 98t-51 84t-83 59.5t-114.5 24.5q-47 2 -84 -3t-67.5 -14.5t-59.5 -23.5t-59 -31l4 2q-41 -27 -55.5 -29t-39.5 27l-43 60q-16 23 -10 40t49 46q39 25 76 46t80 35.5t94 22.5t117 8 q84 0 167 -25.5t148.5 -87t105.5 -165t40 -258.5v-547q0 -35 -31 -35h-135q-29 0 -29 35v80q-55 -43 -110.5 -70t-108.5 -40t-101 -18t-87 -5q-66 0 -129.5 20.5t-116.5 59t-91 97t-53 136.5q-2 16 -3 32.5t-1 37.5zM295 371q0 -94 67.5 -146.5t163.5 -52.5q61 0 128 19.5 t121 56.5t89 91t35 122q-59 39 -134 69.5t-161 30.5q-57 0 -112.5 -10t-99.5 -32.5t-70.5 -59.5t-26.5 -88zM295 1259q1 16 30 57l160 232q12 16 22.5 29.5t26.5 13.5h172q16 0 26.5 -13.5t22.5 -29.5l160 -232q29 -41 30 -57t-40 -16h-109q-23 0 -31 8t-22 24l-123 154 l-123 -154q-14 -16 -22.5 -24t-30.5 -8h-109q-41 0 -40 16z" />
<glyph unicode="&#xe3;" horiz-adv-x="1224" d="M102 365q0 92 41 162.5t112 118.5t164 72.5t197 24.5q49 0 127 -18t160 -59q-2 51 -19.5 98t-51 84t-83 59.5t-114.5 24.5q-47 2 -84 -3t-67.5 -14.5t-59.5 -23.5t-59 -31l4 2q-41 -27 -55.5 -29t-39.5 27l-43 60q-16 23 -10 40t49 46q39 25 76 46t80 35.5t94 22.5t117 8 q84 0 167 -25.5t148.5 -87t105.5 -165t40 -258.5v-547q0 -35 -31 -35h-135q-29 0 -29 35v80q-55 -43 -110.5 -70t-108.5 -40t-101 -18t-87 -5q-66 0 -129.5 20.5t-116.5 59t-91 97t-53 136.5q-2 16 -3 32.5t-1 37.5zM182.5 1388.5q1.5 10.5 18.5 24.5l57 49q23 18 34 17.5 t30 -25.5q29 -37 71.5 -48t77.5 5q57 29 114.5 56.5t133.5 37.5t159 -19t138 -95q16 -23 22.5 -36t-20.5 -34l-55 -45q-23 -20 -33 -14t-33 28q-27 31 -61.5 42.5t-83.5 11.5q-39 0 -71 -11.5t-62.5 -28t-64.5 -32.5t-73 -25q-59 -14 -139 8.5t-147 106.5q-14 16 -12.5 26.5 zM295 371q0 -94 67.5 -146.5t163.5 -52.5q61 0 128 19.5t121 56.5t89 91t35 122q-59 39 -134 69.5t-161 30.5q-57 0 -112.5 -10t-99.5 -32.5t-70.5 -59.5t-26.5 -88z" />
<glyph unicode="&#xe4;" horiz-adv-x="1224" d="M102 365q0 92 41 162.5t112 118.5t164 72.5t197 24.5q49 0 127 -18t160 -59q-2 51 -19.5 98t-51 84t-83 59.5t-114.5 24.5q-47 2 -84 -3t-67.5 -14.5t-59.5 -23.5t-59 -31l4 2q-41 -27 -55.5 -29t-39.5 27l-43 60q-16 23 -10 40t49 46q39 25 76 46t80 35.5t94 22.5t117 8 q84 0 167 -25.5t148.5 -87t105.5 -165t40 -258.5v-547q0 -35 -31 -35h-135q-29 0 -29 35v80q-55 -43 -110.5 -70t-108.5 -40t-101 -18t-87 -5q-66 0 -129.5 20.5t-116.5 59t-91 97t-53 136.5q-2 16 -3 32.5t-1 37.5zM295 371q0 -94 67.5 -146.5t163.5 -52.5q61 0 128 19.5 t121 56.5t89 91t35 122q-59 39 -134 69.5t-161 30.5q-57 0 -112.5 -10t-99.5 -32.5t-70.5 -59.5t-26.5 -88zM307 1278v154q0 35 29 35h168q29 0 28 -35v-154q0 -35 -28 -35h-168q-29 0 -29 35zM717 1278v154q0 35 30 35h168q29 0 29 -35v-154q0 -35 -29 -35h-168 q-31 0 -30 35z" />
<glyph unicode="&#xe5;" horiz-adv-x="1224" d="M102 365q0 92 41 162.5t112 118.5t164 72.5t197 24.5q49 0 127 -18t160 -59q-2 51 -19.5 98t-51 84t-83 59.5t-114.5 24.5q-47 2 -84 -3t-67.5 -14.5t-59.5 -23.5t-59 -31l4 2q-41 -27 -55.5 -29t-39.5 27l-43 60q-16 23 -10 40t49 46q39 25 76 46t80 35.5t94 22.5t117 8 q84 0 167 -25.5t148.5 -87t105.5 -165t40 -258.5v-547q0 -35 -31 -35h-135q-29 0 -29 35v80q-55 -43 -110.5 -70t-108.5 -40t-101 -18t-87 -5q-66 0 -129.5 20.5t-116.5 59t-91 97t-53 136.5q-2 16 -3 32.5t-1 37.5zM276 1377q0 68 25.5 128t69.5 104t103.5 69.5t127.5 25.5 t128 -25.5t104 -69.5t70 -104.5t26 -127.5q0 -68 -26 -127.5t-70 -103.5t-104.5 -69.5t-127.5 -25.5q-68 0 -127.5 25.5t-103.5 69.5t-69.5 103.5t-25.5 127.5zM295 371q0 -94 67.5 -146.5t163.5 -52.5q61 0 128 19.5t121 56.5t89 91t35 122q-59 39 -134 69.5t-161 30.5 q-57 0 -112.5 -10t-99.5 -32.5t-70.5 -59.5t-26.5 -88zM374 1377q0 -49 18.5 -90t49.5 -72t72 -48.5t88 -17.5q98 0 163.5 64.5t65.5 163.5q0 98 -65.5 163.5t-163.5 65.5q-47 0 -88 -17.5t-72 -48t-49.5 -72.5t-18.5 -91z" />
<glyph unicode="&#xe6;" horiz-adv-x="2105" d="M63 367q0 92 41 162.5t112 118.5t165 72.5t199 24.5q47 0 124.5 -18t159.5 -59q-2 51 -19.5 97t-51 83t-82.5 59.5t-115 24.5q-92 2 -147.5 -16.5t-114.5 -51.5q-41 -23 -55.5 -26.5t-38.5 24.5l-50 68q-16 23 -10 40t49 46q76 49 158 75.5t211 26.5q55 0 111.5 -11 t107.5 -35.5t95 -64.5t77 -98q78 90 193.5 151.5t242.5 61.5q119 0 218.5 -45t172 -122.5t112.5 -184t40 -229.5q0 -43 -6 -60.5t-49 -17.5h-846q14 -61 47 -115.5t82 -93.5t109.5 -61.5t130.5 -22.5q76 0 155 28t140 89q23 20 37 34.5t40 -10.5l66 -67q33 -31 23.5 -48.5 t-31.5 -39.5q-84 -84 -193.5 -127t-236.5 -43q-63 0 -130 13t-129.5 43t-119 75t-99.5 108q-66 -88 -135 -137t-135.5 -71.5t-126 -27.5t-102.5 -5q-66 0 -130.5 20.5t-117.5 59t-91 97t-50 136.5q-6 31 -7 70zM256 373q0 -14 2 -29t6 -29q16 -72 80 -106.5t143 -34.5 q61 0 126 19.5t117 56.5t88 91t42 122q-59 39 -134 69.5t-161 30.5q-55 0 -110.5 -10t-99.5 -32.5t-71.5 -59.5t-27.5 -88zM1069 645h692q-14 61 -43.5 113.5t-72.5 92.5t-99.5 62.5t-124.5 22.5t-125 -22.5t-103 -61.5t-78 -92t-46 -115z" />
<glyph unicode="&#xe7;" horiz-adv-x="1107" d="M90 573q0 119 45 222.5t122 180.5t181.5 122t220.5 45q80 0 153 -20.5t138 -59.5q41 -23 49.5 -40t-6.5 -40l-41 -68q-16 -29 -31.5 -36t-35.5 8q-61 41 -116.5 54t-109.5 13q-80 0 -148.5 -30.5t-118.5 -83t-78.5 -122t-28.5 -145.5q0 -78 28.5 -146.5t78.5 -120.5 t119 -82.5t148 -30.5q57 0 117 16t117 57q23 16 33 19.5t26 -21.5l58 -80q16 -23 13 -36t-32 -35q-53 -41 -114.5 -64.5t-124.5 -34.5l-39 -262q-2 -10 -8.5 -16t-22.5 -10h-172q-23 4 -18 22l79 264q-102 14 -190 63.5t-152.5 124t-101.5 170t-37 203.5z" />
<glyph unicode="&#xe8;" horiz-adv-x="1339" d="M90 549q0 119 43 222t119 180t177 122t218 45q119 0 218.5 -45t172 -123t112.5 -184.5t40 -228.5q0 -43 -6 -60.5t-49 -17.5h-846q14 -61 47 -115.5t82 -93.5t109.5 -61.5t129.5 -22.5q84 0 161 29.5t132 85.5q23 20 37 34.5t41 -10.5l66 -67q33 -31 23.5 -48.5 t-32.5 -39.5q-78 -78 -190.5 -123t-237.5 -45q-117 0 -220 44t-180 120.5t-122 180t-45 222.5zM295 641h692q-14 61 -44 113.5t-73 92.5t-99 62.5t-124 22.5t-125 -22.5t-103 -61.5t-78 -92.5t-46 -114.5zM359.5 1503q1.5 11 34.5 27l108 47q33 12 43.5 -1t26.5 -36 l141 -231q29 -47 30 -60.5t-40 -13.5h-109q-23 0 -30.5 8.5t-22.5 24.5l-160 197q-23 27 -21.5 38z" />
<glyph unicode="&#xe9;" horiz-adv-x="1339" d="M90 549q0 119 43 222t119 180t177 122t218 45q119 0 218.5 -45t172 -123t112.5 -184.5t40 -228.5q0 -43 -6 -60.5t-49 -17.5h-846q14 -61 47 -115.5t82 -93.5t109.5 -61.5t129.5 -22.5q84 0 161 29.5t132 85.5q23 20 37 34.5t41 -10.5l66 -67q33 -31 23.5 -48.5 t-32.5 -39.5q-78 -78 -190.5 -123t-237.5 -45q-117 0 -220 44t-180 120.5t-122 180t-45 222.5zM295 641h692q-14 61 -44 113.5t-73 92.5t-99 62.5t-124 22.5t-125 -22.5t-103 -61.5t-78 -92.5t-46 -114.5zM556 1248.5q1 13.5 30 60.5l141 231q16 23 26.5 36t43.5 1l108 -47 q33 -16 34 -27.5t-21 -37.5l-160 -197q-14 -16 -22.5 -24.5t-30.5 -8.5h-109q-41 0 -40 13.5z" />
<glyph unicode="&#xea;" horiz-adv-x="1339" d="M90 549q0 119 43 222t119 180t177 122t218 45q119 0 218.5 -45t172 -123t112.5 -184.5t40 -228.5q0 -43 -6 -60.5t-49 -17.5h-846q14 -61 47 -115.5t82 -93.5t109.5 -61.5t129.5 -22.5q84 0 161 29.5t132 85.5q23 20 37 34.5t41 -10.5l66 -67q33 -31 23.5 -48.5 t-32.5 -39.5q-78 -78 -190.5 -123t-237.5 -45q-117 0 -220 44t-180 120.5t-122 180t-45 222.5zM295 641h692q-14 61 -44 113.5t-73 92.5t-99 62.5t-124 22.5t-125 -22.5t-103 -61.5t-78 -92.5t-46 -114.5zM324 1259q1 16 30 57l160 232q12 16 22.5 29.5t26.5 13.5h172 q16 0 26.5 -13.5t22.5 -29.5l160 -232q29 -41 30 -57t-40 -16h-109q-23 0 -31 8t-22 24l-123 154l-123 -154q-14 -16 -22.5 -24t-30.5 -8h-109q-41 0 -40 16z" />
<glyph unicode="&#xeb;" horiz-adv-x="1339" d="M90 549q0 119 43 222t119 180t177 122t218 45q119 0 218.5 -45t172 -123t112.5 -184.5t40 -228.5q0 -43 -6 -60.5t-49 -17.5h-846q14 -61 47 -115.5t82 -93.5t109.5 -61.5t129.5 -22.5q84 0 161 29.5t132 85.5q23 20 37 34.5t41 -10.5l66 -67q33 -31 23.5 -48.5 t-32.5 -39.5q-78 -78 -190.5 -123t-237.5 -45q-117 0 -220 44t-180 120.5t-122 180t-45 222.5zM295 641h692q-14 61 -44 113.5t-73 92.5t-99 62.5t-124 22.5t-125 -22.5t-103 -61.5t-78 -92.5t-46 -114.5zM330 1276v154q0 35 29 35h168q29 0 28 -35v-154q0 -35 -28 -35h-168 q-29 0 -29 35zM740 1276v154q0 35 30 35h168q29 0 29 -35v-154q0 -35 -29 -35h-168q-31 0 -30 35z" />
<glyph unicode="&#xec;" horiz-adv-x="618" d="M-79 1506.5q1 11.5 34 27.5l108 47q33 12 43.5 -1t26.5 -36l141 -231q29 -47 30 -60.5t-40 -13.5h-108q-23 0 -31 8t-23 25l-159 196q-23 27 -22 38.5zM115 35q0 -35 28 -35h140q31 0 30 35v1030q0 35 -30 35h-138q-31 0 -30 -35v-1030z" />
<glyph unicode="&#xed;" horiz-adv-x="618" d="M98 35v1030q0 35 31 35h137q31 0 31 -35v-1030q0 -35 -31 -35h-139q-29 0 -29 35zM107.5 1252.5q1.5 13.5 29.5 60.5l142 231q16 23 26 36t43 1l109 -47q33 -16 34 -27.5t-22 -38.5l-160 -196q-14 -16 -22 -24.5t-31 -8.5h-109q-41 0 -39.5 13.5z" />
<glyph unicode="&#xee;" horiz-adv-x="618" d="M-46 1257.5q1 16.5 30 57.5l159 231q12 16 22.5 29.5t27.5 13.5h172q16 0 26 -13t23 -30l159 -231q29 -41 30 -57.5t-40 -16.5h-108q-23 0 -31 8t-23 25l-122 153l-123 -153q-14 -16 -22.5 -24.5t-31.5 -8.5h-108q-41 0 -40 16.5zM180 35v1030q0 35 31 35h137 q31 0 31 -35v-1030q0 -35 -31 -35h-139q-29 0 -29 35z" />
<glyph unicode="&#xef;" horiz-adv-x="618" d="M-104 1274v153q0 35 28 35h168q29 0 29 -35v-153q0 -35 -29 -35h-168q-29 0 -28 35zM113 35q0 -35 28 -35h140q31 0 30 35v1030q0 35 -30 35h-138q-31 0 -30 -35v-1030zM305 1274v153q0 35 31 35h168q29 0 28 -35v-153q0 -35 -28 -35h-168q-31 0 -31 35z" />
<glyph unicode="&#xf0;" horiz-adv-x="1474" d="M63 457q0 225 133.5 337.5t421.5 112.5h302v551q0 31 34 31h125q35 0 35 -31v-1374q0 -84 -84 -84h-412q-289 0 -422 114.5t-133 342.5zM256 457q0 -84 28.5 -136.5t78 -81t115 -40t140.5 -11.5h302v531h-302q-76 0 -141 -10.5t-114.5 -39t-78 -79.5t-28.5 -133z M561 1112v123q0 35 31 35h661q31 0 31 -35v-123q0 -35 -31 -35h-661q-31 0 -31 35z" />
<glyph unicode="&#xf1;" d="M139 35v1030q0 35 29 35h137q31 0 31 -35v-51q49 41 126 72.5t181 31.5q92 0 181 -26.5t160 -84t114 -144.5t43 -206v-622q0 -35 -31 -35h-135q-29 0 -29 35v624q0 115 -77.5 192t-225.5 77q-74 0 -132 -24.5t-97 -63.5t-59.5 -87t-20.5 -94v-624q0 -35 -31 -35h-135 q-29 0 -29 35zM204.5 1386.5q1.5 10.5 18.5 24.5l57 49q23 18 34 17.5t30 -25.5q29 -37 71.5 -48t77.5 5q57 29 114.5 56.5t133.5 37.5t159 -19t138 -95q16 -23 22.5 -36t-20.5 -34l-55 -45q-23 -20 -33 -14t-33 28q-27 31 -61.5 42.5t-83.5 11.5q-39 0 -71 -11.5t-62.5 -28 t-64.5 -32.5t-73 -25q-59 -14 -139 8.5t-147 106.5q-14 16 -12.5 26.5z" />
<glyph unicode="&#xf2;" horiz-adv-x="1359" d="M88 549q0 119 45 222t122 180t180 122t220 45q119 0 222.5 -45t181.5 -122t123 -180t45 -222t-45 -222.5t-123 -180t-181.5 -120.5t-222.5 -44q-117 0 -220 44t-180 120.5t-122 180t-45 222.5zM283 549q0 -78 28.5 -147.5t77.5 -122t117.5 -83t148.5 -30.5t149.5 30.5 t120 83t80 122t29.5 147.5q0 76 -29.5 145.5t-80 121.5t-120 84t-149.5 32t-148.5 -32t-117.5 -84t-77.5 -121.5t-28.5 -145.5zM338.5 1511q1.5 11 34.5 27l108 47q33 12 43.5 -1t26.5 -36l141 -231q29 -47 30 -60.5t-40 -13.5h-109q-23 0 -30.5 8.5t-22.5 24.5l-160 197 q-23 27 -21.5 38z" />
<glyph unicode="&#xf3;" horiz-adv-x="1359" d="M88 549q0 119 45 222t122 180t180 122t220 45q119 0 222.5 -45t181.5 -122t123 -180t45 -222t-45 -222.5t-123 -180t-181.5 -120.5t-222.5 -44q-117 0 -220 44t-180 120.5t-122 180t-45 222.5zM283 549q0 -78 28.5 -147.5t77.5 -122t117.5 -83t148.5 -30.5t149.5 30.5 t120 83t80 122t29.5 147.5q0 76 -29.5 145.5t-80 121.5t-120 84t-149.5 32t-148.5 -32t-117.5 -84t-77.5 -121.5t-28.5 -145.5zM541 1256.5q1 13.5 30 60.5l141 231q16 23 26.5 36t43.5 1l108 -47q33 -16 34 -27.5t-21 -37.5l-160 -197q-14 -16 -22.5 -24.5t-30.5 -8.5h-109 q-41 0 -40 13.5z" />
<glyph unicode="&#xf4;" horiz-adv-x="1359" d="M88 549q0 119 45 222t122 180t180 122t220 45q119 0 222.5 -45t181.5 -122t123 -180t45 -222t-45 -222.5t-123 -180t-181.5 -120.5t-222.5 -44q-117 0 -220 44t-180 120.5t-122 180t-45 222.5zM283 549q0 -78 28.5 -147.5t77.5 -122t117.5 -83t148.5 -30.5t149.5 30.5 t120 83t80 122t29.5 147.5q0 76 -29.5 145.5t-80 121.5t-120 84t-149.5 32t-148.5 -32t-117.5 -84t-77.5 -121.5t-28.5 -145.5zM326 1259q1 16 30 57l160 232q12 16 22.5 29.5t26.5 13.5h172q16 0 26.5 -13.5t22.5 -29.5l160 -232q29 -41 30 -57t-40 -16h-109q-23 0 -31 8 t-22 24l-123 154l-123 -154q-14 -16 -22.5 -24t-30.5 -8h-109q-41 0 -40 16z" />
<glyph unicode="&#xf5;" horiz-adv-x="1359" d="M88 549q0 119 45 222t122 180t180 122t220 45q119 0 222.5 -45t181.5 -122t123 -180t45 -222t-45 -222.5t-123 -180t-181.5 -120.5t-222.5 -44q-117 0 -220 44t-180 120.5t-122 180t-45 222.5zM229.5 1363.5q1.5 10.5 18.5 24.5l57 49q23 18 34 17.5t30 -25.5 q29 -37 71.5 -48t77.5 5q57 29 114.5 56.5t133.5 37.5t159 -19t138 -95q16 -23 22.5 -36t-20.5 -34l-55 -45q-23 -20 -33 -14t-33 28q-27 31 -61.5 42.5t-83.5 11.5q-39 0 -71 -11.5t-62.5 -28t-64.5 -32.5t-73 -25q-59 -14 -139 8.5t-147 106.5q-14 16 -12.5 26.5zM283 549 q0 -78 28.5 -147.5t77.5 -122t117.5 -83t148.5 -30.5t149.5 30.5t120 83t80 122t29.5 147.5q0 76 -29.5 145.5t-80 121.5t-120 84t-149.5 32t-148.5 -32t-117.5 -84t-77.5 -121.5t-28.5 -145.5z" />
<glyph unicode="&#xf6;" horiz-adv-x="1359" d="M88 549q0 119 45 222t122 180t180 122t220 45q119 0 222.5 -45t181.5 -122t123 -180t45 -222t-45 -222.5t-123 -180t-181.5 -120.5t-222.5 -44q-117 0 -220 44t-180 120.5t-122 180t-45 222.5zM283 549q0 -78 28.5 -147.5t77.5 -122t117.5 -83t148.5 -30.5t149.5 30.5 t120 83t80 122t29.5 147.5q0 76 -29.5 145.5t-80 121.5t-120 84t-149.5 32t-148.5 -32t-117.5 -84t-77.5 -121.5t-28.5 -145.5zM332 1276v154q0 35 29 35h168q29 0 28 -35v-154q0 -35 -28 -35h-168q-29 0 -29 35zM742 1276v154q0 35 30 35h168q29 0 29 -35v-154 q0 -35 -29 -35h-168q-31 0 -30 35z" />
<glyph unicode="&#xf7;" horiz-adv-x="1234" d="M172 565v119q0 41 41 41h762q41 0 41 -41v-119q0 -41 -41 -41h-762q-41 0 -41 41zM477 96v166q0 41 41 41h156q41 0 41 -41v-166q0 -41 -41 -41h-156q-41 0 -41 41zM477 989v166q0 41 41 41h156q41 0 41 -41v-166q0 -41 -41 -41h-156q-41 0 -41 41z" />
<glyph unicode="&#xf8;" horiz-adv-x="1359" d="M57 549q0 119 45 222t122 180t180.5 122t220.5 45h10l37 215q6 35 35 35h135q35 0 28 -35l-43 -252q80 -31 147.5 -84t117 -121.5t77 -151.5t27.5 -175q0 -117 -44 -219.5t-120 -179t-177 -121.5t-218 -47l-31 -183q-6 -35 -35 -35h-133q-35 0 -28 35l34 211 q-84 27 -154.5 79t-122.5 123t-81 156t-29 181zM252 549q0 -117 61.5 -212t163.5 -140l125 735q-76 -4 -140.5 -38t-110.5 -86t-72.5 -118.5t-26.5 -140.5zM670 168q72 8 133 42t105 85t70 116.5t26 137.5q0 109 -57.5 201t-151.5 141z" />
<glyph unicode="&#xf9;" d="M137 442v623q0 35 31 35h135q29 0 29 -35v-625q0 -115 77.5 -191.5t225.5 -76.5q74 0 132 24.5t97 63.5t59.5 87t20.5 93v625q0 35 31 35h135q29 0 29 -35v-1030q0 -35 -29 -35h-137q-31 0 -31 35v51q-49 -41 -126 -72.5t-181 -31.5q-92 0 -181 26.5t-160 84t-114 143.5 t-43 206zM363.5 1511q1.5 11 34.5 27l108 47q33 12 43.5 -1t26.5 -36l141 -231q29 -47 30 -60.5t-40 -13.5h-109q-23 0 -30.5 8.5t-22.5 24.5l-160 197q-23 27 -21.5 38z" />
<glyph unicode="&#xfa;" d="M137 442v623q0 35 31 35h135q29 0 29 -35v-625q0 -115 77.5 -191.5t225.5 -76.5q74 0 132 24.5t97 63.5t59.5 87t20.5 93v625q0 35 31 35h135q29 0 29 -35v-1030q0 -35 -29 -35h-137q-31 0 -31 35v51q-49 -41 -126 -72.5t-181 -31.5q-92 0 -181 26.5t-160 84t-114 143.5 t-43 206zM505 1256.5q1 13.5 30 60.5l141 231q16 23 26.5 36t43.5 1l108 -47q33 -16 34 -27.5t-21 -37.5l-160 -197q-14 -16 -22.5 -24.5t-30.5 -8.5h-109q-41 0 -40 13.5z" />
<glyph unicode="&#xfb;" d="M137 442v623q0 35 31 35h135q29 0 29 -35v-625q0 -115 77.5 -191.5t225.5 -76.5q74 0 132 24.5t97 63.5t59.5 87t20.5 93v625q0 35 31 35h135q29 0 29 -35v-1030q0 -35 -29 -35h-137q-31 0 -31 35v51q-49 -41 -126 -72.5t-181 -31.5q-92 0 -181 26.5t-160 84t-114 143.5 t-43 206zM304 1257q1 16 30 57l160 232q12 16 22.5 29.5t26.5 13.5h172q16 0 26.5 -13.5t22.5 -29.5l160 -232q29 -41 30 -57t-40 -16h-109q-23 0 -31 8t-22 24l-123 154l-123 -154q-14 -16 -22.5 -24t-30.5 -8h-109q-41 0 -40 16z" />
<glyph unicode="&#xfc;" d="M137 442v623q0 35 31 35h135q29 0 29 -35v-625q0 -115 77.5 -191.5t225.5 -76.5q74 0 132 24.5t97 63.5t59.5 87t20.5 93v625q0 35 31 35h135q29 0 29 -35v-1030q0 -35 -29 -35h-137q-31 0 -31 35v51q-49 -41 -126 -72.5t-181 -31.5q-92 0 -181 26.5t-160 84t-114 143.5 t-43 206zM319 1276v154q0 35 29 35h168q29 0 28 -35v-154q0 -35 -28 -35h-168q-29 0 -29 35zM729 1276v154q0 35 30 35h168q29 0 29 -35v-154q0 -35 -29 -35h-168q-31 0 -30 35z" />
<glyph unicode="&#xfd;" horiz-adv-x="1228" d="M74 1065q-6 16 0 25.5t22 9.5h133q25 0 35 -10.5t17 -24.5l370 -780l328 780q6 14 16.5 24.5t34.5 10.5h137q16 0 23.5 -9.5t-0.5 -25.5l-449 -1036q-57 -127 -100 -215t-87 -143.5t-97.5 -81t-130.5 -25.5q-35 0 -73 7t-81 19q-41 10 -51 20.5t2 45.5l33 98 q10 33 24.5 31t40.5 -10q20 -6 43 -13.5t55 -7.5q39 0 67 17.5t52.5 53.5t48 90t56.5 130zM496 1256.5q1 13.5 30 60.5l141 231q16 23 26.5 36t43.5 1l108 -47q33 -16 34 -27.5t-21 -37.5l-160 -197q-14 -16 -22.5 -24.5t-30.5 -8.5h-109q-41 0 -40 13.5z" />
<glyph unicode="&#xfe;" horiz-adv-x="1372" d="M111 -346v1800q0 35 30 35h135q29 0 29 -35v-457q53 45 135 83t193 38q117 0 218 -44t175 -119.5t116 -180t42 -223.5t-42 -222.5t-116 -180t-175 -120.5t-218 -44q-106 0 -189.5 38.5t-136.5 81.5v-450q0 -35 -28 -35h-138q-31 0 -30 35zM305 549q0 -88 25.5 -157.5 t69.5 -118t104.5 -74t128.5 -25.5q78 0 144.5 31t114.5 82t75.5 119.5t27.5 144.5q0 78 -27.5 146.5t-75.5 119.5t-114.5 81t-144.5 30q-68 0 -128.5 -25.5t-104.5 -75t-69.5 -120t-25.5 -158.5z" />
<glyph unicode="&#xff;" horiz-adv-x="1228" d="M74 1065q-6 16 0 25.5t22 9.5h133q25 0 35 -10.5t17 -24.5l370 -780l328 780q6 14 16.5 24.5t34.5 10.5h137q16 0 23.5 -9.5t-0.5 -25.5l-449 -1036q-57 -127 -100 -215t-87 -143.5t-97.5 -81t-130.5 -25.5q-35 0 -73 7t-81 19q-41 10 -51 20.5t2 45.5l33 98 q10 33 24.5 31t40.5 -10q20 -6 43 -13.5t55 -7.5q39 0 67 17.5t52.5 53.5t48 90t56.5 130zM336 1311v154q0 35 29 35h168q29 0 28 -35v-154q0 -35 -28 -35h-168q-29 0 -29 35zM746 1311v154q0 35 30 35h168q29 0 29 -35v-154q0 -35 -29 -35h-168q-31 0 -30 35z" />
<glyph unicode="&#x152;" horiz-adv-x="2134" d="M88 764q0 160 60.5 301t166 245.5t246.5 165t301 60.5h1053q31 0 31 -35v-133q0 -35 -31 -35h-633v-463h582q31 0 30 -34v-134q0 -35 -30 -34h-582v-465h633q31 0 31 -35v-133q0 -35 -31 -35h-1053q-160 0 -301 59.5t-246.5 162t-166 242.5t-60.5 300zM287 764 q0 -121 46 -223.5t125 -177t184.5 -117.5t225.5 -43h219v1138h-219q-121 0 -226 -45t-184 -123.5t-125 -184t-46 -224.5z" />
<glyph unicode="&#x153;" horiz-adv-x="2193" d="M43 553q0 119 45 222.5t122 180t180.5 121.5t219.5 45q152 0 275 -67.5t200 -184.5q74 117 196 184.5t269 67.5q119 0 218.5 -45t172 -122.5t112.5 -184t40 -229.5q0 -43 -6 -60.5t-49 -17.5h-846q14 -61 47 -115.5t82 -93.5t109.5 -61.5t130.5 -22.5q84 0 160.5 29.5 t131.5 85.5q23 20 37.5 34.5t40.5 -10.5l66 -67q33 -31 23.5 -48.5t-31.5 -39.5q-78 -78 -190.5 -123t-237.5 -45q-147 0 -272.5 67.5t-203.5 182.5q-78 -115 -202.5 -182.5t-272.5 -67.5q-117 0 -220 44t-180 120.5t-122 180t-45 222.5zM233 553q0 -78 29 -148.5t80 -124 t119.5 -84t148.5 -30.5q78 0 146.5 29.5t120 80t82 118t34.5 143.5v16q0 76 -29.5 145.5t-82 124t-122 86t-149.5 31.5t-148.5 -31.5t-119.5 -86t-80 -124t-29 -145.5zM1198 645h692q-14 61 -43.5 113.5t-72.5 92.5t-99.5 62.5t-124.5 22.5t-125 -22.5t-103 -61.5t-78 -92 t-46 -115z" />
<glyph unicode="&#x178;" horiz-adv-x="1429" d="M-12 1526.5q8 9.5 24 9.5h154q25 0 34 -9t19 -26l455 -717l454 717q10 16 19.5 25.5t34.5 9.5h153q16 0 24.5 -9t-1.5 -26l-584 -919q0 -125 -1 -273.5t-1 -273.5q0 -35 -31 -35h-135q-31 0 -31 35q0 125 -1 273.5t-1 273.5l-583 919q-10 16 -2 25.5zM362 1716v154 q0 35 29 35h168q29 0 28 -35v-154q0 -35 -28 -35h-168q-29 0 -29 35zM772 1716v154q0 35 30 35h168q29 0 29 -35v-154q0 -35 -29 -35h-168q-31 0 -30 35z" />
<glyph unicode="&#x2c6;" horiz-adv-x="1024" d="M105 1665q1 16 30 57l160 232q12 16 22.5 29.5t26.5 13.5h172q16 0 26.5 -13.5t22.5 -29.5l160 -232q29 -41 30 -57t-40 -16h-109q-23 0 -31 8t-22 24l-123 154l-123 -154q-14 -16 -22.5 -24t-30.5 -8h-109q-41 0 -40 16z" />
<glyph unicode="&#x2dc;" horiz-adv-x="1024" d="M61.5 1820.5q1.5 10.5 18.5 24.5l57 49q23 18 34 17.5t30 -25.5q29 -37 71.5 -48t77.5 5q57 29 114.5 56.5t133.5 37.5t159 -19t138 -95q16 -23 22.5 -36t-20.5 -34l-55 -45q-23 -20 -33 -14t-33 28q-27 31 -61.5 42.5t-83.5 11.5q-39 0 -71 -11.5t-62.5 -28t-64.5 -32.5 t-73 -25q-59 -14 -139 8.5t-147 106.5q-14 16 -12.5 26.5z" />
<glyph unicode="&#x2000;" horiz-adv-x="1028" />
<glyph unicode="&#x2001;" horiz-adv-x="2056" />
<glyph unicode="&#x2002;" horiz-adv-x="1028" />
<glyph unicode="&#x2003;" horiz-adv-x="2056" />
<glyph unicode="&#x2004;" horiz-adv-x="685" />
<glyph unicode="&#x2005;" horiz-adv-x="514" />
<glyph unicode="&#x2006;" horiz-adv-x="342" />
<glyph unicode="&#x2007;" horiz-adv-x="342" />
<glyph unicode="&#x2008;" horiz-adv-x="257" />
<glyph unicode="&#x2009;" horiz-adv-x="411" />
<glyph unicode="&#x200a;" horiz-adv-x="114" />
<glyph unicode="&#x2010;" horiz-adv-x="909" d="M78 561v119q0 41 41 41h667q41 0 41 -41v-119q0 -41 -41 -41h-667q-41 0 -41 41z" />
<glyph unicode="&#x2011;" horiz-adv-x="909" d="M78 561v119q0 41 41 41h667q41 0 41 -41v-119q0 -41 -41 -41h-667q-41 0 -41 41z" />
<glyph unicode="&#x2012;" horiz-adv-x="909" d="M78 561v119q0 41 41 41h667q41 0 41 -41v-119q0 -41 -41 -41h-667q-41 0 -41 41z" />
<glyph unicode="&#x2013;" horiz-adv-x="1241" d="M100 702v117q0 41 41 41h936q41 0 41 -41v-117q0 -41 -41 -40h-936q-41 0 -41 40z" />
<glyph unicode="&#x2014;" horiz-adv-x="1630" d="M102 705v116q0 41 41 41h1327q41 0 41 -41v-116q0 -41 -41 -41h-1327q-41 0 -41 41z" />
<glyph unicode="&#x2018;" horiz-adv-x="622" d="M154 1229v166q0 154 56 219t196 69q10 0 16 -10q2 -6 2 -10l6 -74q0 -12 -10 -16q-6 -2 -10 -2q-41 -4 -62.5 -13.5t-31 -25.5t-11.5 -41t-2 -57h66q31 0 30 -35v-170q0 -35 -30 -35h-185q-31 0 -30 35z" />
<glyph unicode="&#x2019;" horiz-adv-x="622" d="M113 1288q0 12 10 17q4 2 10 2q39 4 61.5 13t32 25.5t11.5 41t2 57.5h-66q-31 0 -31 35v170q0 35 31 34h184q31 0 31 -34v-166q0 -154 -56.5 -219.5t-195.5 -69.5q-12 0 -16 10q-2 4 -2 10z" />
<glyph unicode="&#x201a;" horiz-adv-x="585" d="M113 -156q0 12 10 17q4 2 10 2q39 4 61.5 13t32 25.5t11.5 41t2 57.5h-66q-31 0 -31 35v170q0 35 31 35h184q31 0 31 -35v-166q0 -154 -56.5 -219.5t-195.5 -69.5q-12 0 -16 10q-2 4 -2 11z" />
<glyph unicode="&#x201c;" horiz-adv-x="1105" d="M186 1001v166q0 154 56.5 219.5t195.5 69.5q10 0 17 -10q2 -6 2 -10l6 -74q0 -12 -10 -16q-6 -2 -11 -3q-41 -4 -62.5 -13t-30.5 -25.5t-11 -41t-2 -57.5h65q31 0 31 -35v-170q0 -35 -31 -34h-184q-31 0 -31 34zM616 1001v166q0 154 56.5 219.5t195.5 69.5q10 0 17 -10 q2 -6 2 -10l6 -74q0 -12 -10 -16q-6 -2 -11 -3q-41 -4 -62.5 -13t-30.5 -25.5t-11 -41t-2 -57.5h65q31 0 31 -35v-170q0 -35 -31 -34h-184q-31 0 -31 34z" />
<glyph unicode="&#x201d;" horiz-adv-x="1105" d="M143 1104q0 12 11 16q4 2 10 2q39 4 61.5 13.5t31.5 26t11 41t2 57.5h-65q-31 0 -31 34v170q0 35 31 35h184q31 0 31 -35v-166q0 -154 -56.5 -219t-195.5 -69q-12 0 -16 10q-2 4 -2 10zM573 1104q0 12 11 16q4 2 10 2q39 4 61.5 13.5t31.5 26t11 41t2 57.5h-65 q-31 0 -31 34v170q0 35 31 35h184q31 0 31 -35v-166q0 -154 -56.5 -219t-195.5 -69q-12 0 -16 10q-2 4 -2 10z" />
<glyph unicode="&#x201e;" horiz-adv-x="1105" d="M113 -156q0 12 10 17q4 2 10 2q39 4 61.5 13t32 25.5t11.5 41t2 57.5h-66q-31 0 -31 35v170q0 35 31 35h184q31 0 31 -35v-166q0 -154 -56.5 -219.5t-195.5 -69.5q-12 0 -16 10q-2 4 -2 11zM543 -156q0 12 10 17q4 2 10 2q39 4 61.5 13t32 25.5t11.5 41t2 57.5h-66 q-31 0 -31 35v170q0 35 31 35h184q31 0 31 -35v-166q0 -154 -56 -219.5t-196 -69.5q-12 0 -16 10q-2 4 -2 11z" />
<glyph unicode="&#x2022;" horiz-adv-x="1075" d="M238 555q0 57 21.5 108.5t59 89.5t88 60.5t109.5 22.5q57 0 108.5 -22.5t90.5 -60.5t60.5 -89.5t21.5 -108.5q0 -59 -21.5 -109.5t-60.5 -88.5t-90.5 -59.5t-108.5 -21.5q-59 0 -109.5 21.5t-88 59.5t-59 88.5t-21.5 109.5z" />
<glyph unicode="&#x2026;" horiz-adv-x="1863" d="M127 35v170q0 35 31 35h184q31 0 31 -35v-170q0 -35 -31 -35h-184q-31 0 -31 35zM809 35v170q0 35 31 35h184q31 0 31 -35v-170q0 -35 -31 -35h-184q-31 0 -31 35zM1495 35v170q0 35 31 35h184q31 0 31 -35v-170q0 -35 -31 -35h-184q-31 0 -31 35z" />
<glyph unicode="&#x202f;" horiz-adv-x="411" />
<glyph unicode="&#x2039;" horiz-adv-x="854" d="M160 559v86q0 29 7 39t30 29l424 325q16 10 26 4t10 -22v-148q0 -27 -3 -32.5t-25 -26.5l-256 -211l256 -211q23 -18 25.5 -25.5t2.5 -33.5v-148q0 -16 -10 -22t-26 4l-424 326q-25 18 -31 28t-6 39z" />
<glyph unicode="&#x203a;" horiz-adv-x="763" d="M123 184v148q0 27 3 34t26 25l256 211l-256 211q-23 20 -26 26.5t-3 32.5v148q0 16 10 22.5t27 -4.5l424 -325q23 -18 30 -28.5t7 -39.5v-86q0 -29 -6.5 -39t-30.5 -28l-424 -326q-16 -10 -26.5 -4t-10.5 22z" />
<glyph unicode="&#x205f;" horiz-adv-x="514" />
<glyph unicode="&#x20ac;" horiz-adv-x="1574" d="M125 547v131q0 35 31 35h104q-2 12 -2 25.5v27.5v31.5t2 31.5h-100q-12 0 -23.5 11.5t-11.5 23.5v131q0 35 31 35h149q43 113 119 209t175 165t218 107.5t248 38.5q94 0 183 -22.5t165 -63.5q47 -25 51 -42t-12 -52l-37 -72q-8 -16 -20.5 -20t-26.5 -1t-29.5 10t-27.5 13 q-51 23 -109.5 38.5t-136.5 17.5q-88 0 -170 -23.5t-152.5 -66.5t-128 -103.5t-96.5 -132.5h586q31 0 31 -35v-131q0 -12 -11.5 -23.5t-23.5 -11.5h-643q-2 -16 -3 -31.5t-1 -31.5v-27.5t2 -25.5h649q31 0 31 -35v-131q0 -12 -11.5 -23.5t-23.5 -11.5h-586 q37 -74 94.5 -135.5t129 -105.5t154.5 -68.5t173 -24.5q78 2 136.5 18.5t109.5 39.5q12 6 26.5 14t27.5 12t24.5 1t21.5 -21l29 -54q14 -25 21 -41t5 -28.5t-15 -22.5t-38 -24q-76 -43 -165 -64.5t-183 -21.5q-131 0 -251 38.5t-220 108.5t-176 167t-117 212h-141 q-12 0 -23.5 11.5t-11.5 23.5z" />
<glyph unicode="&#x2122;" horiz-adv-x="1816" d="M51 1444v74q0 18 21 18h604q20 0 20 -18v-74q0 -18 -20 -19h-250v-741q0 -20 -16 -20h-74q-18 0 -19 20v741h-245q-20 0 -21 19zM784 684q0 -20 19 -20h76q18 0 18 20v586l279 -586q10 -20 24 -20h68q14 0 24 20l279 586v-586q0 -20 16 -20h78q16 0 16 20v832 q0 20 -16 20h-80q-14 0 -24 -20l-328 -676l-326 676q-10 20 -24 20h-80q-18 0 -19 -20v-832z" />
<glyph unicode="&#xe000;" horiz-adv-x="1095" d="M0 0v1096h1096v-1096h-1096z" />
</font>
</defs>
</svg>
